<?xml version="1.0" encoding="UTF-8" standalone="no"?>
<!-- Created with Inkscape (http://www.inkscape.org/) -->

<svg
   width="150cm"
   height="100cm"
   viewBox="0 0 1500 1000"
   version="1.1"
   id="svg5"
   inkscape:version="1.2.2 (b0a8486541, 2022-12-01)"
   sodipodi:docname="poster.svg"
   inkscape:export-filename="poster.png"
   inkscape:export-xdpi="96"
   inkscape:export-ydpi="96"
   xml:space="preserve"
   xmlns:inkscape="http://www.inkscape.org/namespaces/inkscape"
   xmlns:sodipodi="http://sodipodi.sourceforge.net/DTD/sodipodi-0.dtd"
   xmlns="http://www.w3.org/2000/svg"
   xmlns:svg="http://www.w3.org/2000/svg"><sodipodi:namedview
     id="namedview7"
     pagecolor="#ffffff"
     bordercolor="#000000"
     borderopacity="0.25"
     inkscape:showpageshadow="2"
     inkscape:pageopacity="0.0"
     inkscape:pagecheckerboard="0"
     inkscape:deskcolor="#d1d1d1"
     inkscape:document-units="cm"
     showgrid="false"
     inkscape:zoom="0.034094863"
     inkscape:cx="3871.551"
     inkscape:cy="4135.5204"
     inkscape:window-width="1920"
     inkscape:window-height="1011"
     inkscape:window-x="1920"
     inkscape:window-y="32"
     inkscape:window-maximized="1"
     inkscape:current-layer="layer5"
     showguides="true"><sodipodi:guide
       position="29.999999,807.94457"
       orientation="-1,0"
       id="guide1844"
       inkscape:locked="false"
       inkscape:label=""
       inkscape:color="rgb(255,255,255)" /><sodipodi:guide
       position="1470,999.99998"
       orientation="-1,0"
       id="guide1846"
       inkscape:locked="false"
       inkscape:label=""
       inkscape:color="rgb(255,255,255)" /><sodipodi:guide
       position="499.99999,507.22659"
       orientation="-1,0"
       id="guide1854"
       inkscape:locked="false"
       inkscape:label=""
       inkscape:color="rgb(255,255,255)" /><sodipodi:guide
       position="514.99999,1523.9955"
       orientation="-1,0"
       id="guide1868"
       inkscape:label=""
       inkscape:locked="false"
       inkscape:color="rgb(255,255,255)" /><sodipodi:guide
       position="984.99998,1238.7123"
       orientation="-1,0"
       id="guide1920"
       inkscape:label=""
       inkscape:locked="false"
       inkscape:color="rgb(255,255,255)" /><sodipodi:guide
       position="999.99998,1507.67"
       orientation="-1,0"
       id="guide1922"
       inkscape:label=""
       inkscape:locked="false"
       inkscape:color="rgb(255,255,255)" /></sodipodi:namedview><defs
     id="defs2"><rect
       x="113.38582"
       y="765.87875"
       width="1094.9272"
       height="406.9605"
       id="rect1850" /><rect
       x="83.965523"
       y="3576.0176"
       width="1468.1525"
       height="176.27676"
       id="rect1249" /><rect
       x="526.64984"
       y="124.38078"
       width="3681.134"
       height="372.95496"
       id="rect1007" /><rect
       x="526.64984"
       y="124.38078"
       width="4721.7603"
       height="166.74484"
       id="rect674" /><style
       id="style1150">
      .cls-1 {
        fill: #0072bc;
        stroke-width: 0px;
      }
    </style></defs><g
     inkscape:groupmode="layer"
     id="layer2"
     inkscape:label="Background"><rect
       style="fill:#179299;fill-opacity:1;stroke-width:0.312959"
       id="rect915"
       width="1500"
       height="1000"
       x="0"
       y="-2.8421709e-14"
       inkscape:label="bkgr" /><rect
       style="display:none;fill:#ffffff;fill-opacity:1;stroke-width:0.312959"
       id="rect915-3"
       width="1500"
       height="1000"
       x="-1.1368684e-13"
       y="2.8421709e-14"
       inkscape:label="bkgr-white" /><rect
       style="display:none;fill:#179299;stroke-width:0.227068"
       id="rect507"
       width="1500"
       height="200"
       x="3.5527137e-14"
       y="0" /><rect
       style="display:none;fill:#179299;stroke-width:0.135589"
       id="rect665"
       width="1500"
       height="74.333374"
       x="9.2370556e-14"
       y="925.66663" /></g><g
     inkscape:label="Palette"
     inkscape:groupmode="layer"
     id="layer1"><circle
       style="fill:#fe640b;stroke-width:0.264583"
       id="circle2579"
       cx="-849.30164"
       cy="-255.53365"
       r="49.519184" /><circle
       style="fill:#179299;stroke-width:0.264583"
       id="circle2585"
       cx="-724.16272"
       cy="-254.20348"
       r="49.519184" /><circle
       style="fill:#4c4f69;stroke-width:0.264583"
       id="circle2595"
       cx="-599.0238"
       cy="-253.48291"
       r="49.519184" /><circle
       style="fill:#ffffff;fill-opacity:1;stroke-width:0.264583"
       id="circle307"
       cx="-473.88486"
       cy="-253.22223"
       r="49.519184" /></g><g
     inkscape:groupmode="layer"
     id="layer4"
     inkscape:label="Footer"
     transform="translate(16.400269,-7.4296553)"><g
       id="g1257"><path
         style="fill:#ffffff;stroke-width:0.0496821"
         d="m 1381.2838,998.26745 c -1.1772,-0.1144 -2.3676,-0.26006 -2.6054,-0.31909 -0.1519,-0.0376 -0.4582,-0.0936 -0.6808,-0.12476 -0.2225,-0.0312 -0.4795,-0.0797 -0.5713,-0.10799 -0.092,-0.0284 -0.3903,-0.10395 -0.6636,-0.1672 -1.9881,-0.46117 -3.9459,-1.17948 -5.8873,-2.1605 -0.5739,-0.28994 -0.9654,-0.50435 -1.8191,-0.99596 -0.5091,-0.29315 -1.9205,-1.25428 -2.4731,-1.68401 -1.9808,-1.54083 -3.7059,-3.26582 -5.251,-5.25106 -0.4289,-0.55115 -1.3905,-1.96329 -1.684,-2.47297 -0.6626,-1.15079 -1.1586,-2.09486 -1.4909,-2.83753 -0.086,-0.19126 -0.1873,-0.41489 -0.2264,-0.49681 -0.1144,-0.2404 -0.6029,-1.52421 -0.672,-1.76566 -0.035,-0.12221 -0.081,-0.24456 -0.1015,-0.27239 -0.064,-0.0858 -0.5012,-1.61704 -0.6666,-2.33397 -0.062,-0.2733 -0.1379,-0.57195 -0.1665,-0.66362 -0.028,-0.0923 -0.077,-0.34884 -0.1079,-0.57143 -0.031,-0.22246 -0.087,-0.52749 -0.1235,-0.67779 -0.037,-0.1503 -0.1015,-0.60862 -0.1444,-1.01844 -0.043,-0.40982 -0.1054,-0.93523 -0.1396,-1.16757 -0.041,-0.28136 -0.062,-1.07695 -0.062,-2.38469 0,-1.30773 0.021,-2.10331 0.062,-2.3848 0.034,-0.23222 0.096,-0.75762 0.1396,-1.16745 0.043,-0.40995 0.1078,-0.86827 0.1444,-1.01856 0.037,-0.15031 0.092,-0.45533 0.1235,-0.6778 0.031,-0.22246 0.08,-0.47964 0.1079,-0.5713 0.028,-0.0923 0.104,-0.39045 0.1672,-0.66362 0.2803,-1.20853 0.5669,-2.12529 1.1027,-3.52742 0.1462,-0.38264 0.2976,-0.76269 0.3365,-0.84461 0.039,-0.0819 0.1408,-0.30554 0.2264,-0.4968 0.3322,-0.74266 0.8282,-1.68673 1.4909,-2.83767 0.2932,-0.50902 1.2543,-1.92051 1.684,-2.47296 1.5445,-1.98565 3.2653,-3.70645 5.2509,-5.25095 0.5527,-0.42984 1.964,-1.39095 2.4732,-1.68414 0.8537,-0.4916 1.2451,-0.70587 1.819,-0.99582 0.6241,-0.31542 0.8661,-0.43036 1.4408,-0.68468 0.3933,-0.17409 1.6109,-0.64308 1.8402,-0.70873 0.1222,-0.0351 0.2444,-0.0806 0.2723,-0.10142 0.052,-0.0377 0.3797,-0.1386 1.3155,-0.40201 0.9528,-0.2681 2.0128,-0.518 2.3847,-0.56221 0.1504,-0.0182 0.3963,-0.0624 0.5467,-0.10011 0.1501,-0.0377 0.6084,-0.10272 1.0184,-0.1451 0.4098,-0.0429 0.9353,-0.10532 1.1675,-0.13951 0.5802,-0.0845 4.1893,-0.0845 4.7695,0 0.2323,0.0338 0.7577,0.0962 1.1675,0.13951 0.41,0.0429 0.8683,0.10792 1.0185,0.14457 0.1503,0.0364 0.4553,0.0923 0.6778,0.12352 0.2225,0.0312 0.4795,0.0793 0.5714,0.10792 0.092,0.0286 0.3903,0.10402 0.6636,0.16642 0.7171,0.16539 2.2476,0.60251 2.334,0.66662 0.028,0.0208 0.1504,0.0663 0.2723,0.10141 0.2293,0.0663 1.4469,0.53464 1.8403,0.70873 1.1121,0.49225 1.9147,0.90597 3.2597,1.6805 0.5092,0.29319 1.9205,1.25443 2.4731,1.68414 1.9809,1.54085 3.706,3.26582 5.251,5.25108 0.429,0.55115 1.3906,1.96329 1.684,2.47297 0.6603,1.1465 1.138,2.0526 1.4437,2.7382 0.086,0.19125 0.1973,0.43712 0.2489,0.54647 0.1356,0.28747 0.6222,1.55516 0.6968,1.81533 0.035,0.12222 0.081,0.24443 0.1014,0.27239 0.037,0.052 0.1441,0.39786 0.3945,1.2907 0.077,0.27316 0.1632,0.57494 0.1927,0.67038 0.03,0.0949 0.077,0.30789 0.1066,0.47197 0.028,0.16408 0.083,0.38849 0.1196,0.49849 0.037,0.11052 0.094,0.38953 0.1261,0.6211 0.032,0.23143 0.088,0.54374 0.1261,0.69417 0.037,0.15031 0.1015,0.60862 0.1444,1.01845 0.043,0.40981 0.1054,0.93522 0.1396,1.16757 0.041,0.28136 0.062,1.07695 0.062,2.38468 0,1.30773 -0.021,2.10332 -0.062,2.38481 -0.034,0.23222 -0.096,0.75762 -0.1396,1.16744 -0.043,0.40995 -0.1078,0.86827 -0.1444,1.01857 -0.037,0.15017 -0.094,0.46261 -0.1261,0.69404 -0.033,0.23156 -0.089,0.51097 -0.1261,0.6211 -0.037,0.11052 -0.091,0.33441 -0.1196,0.4985 -0.03,0.16408 -0.077,0.3764 -0.1066,0.47197 -0.03,0.0949 -0.1158,0.3972 -0.1927,0.67038 -0.2504,0.89284 -0.3561,1.23908 -0.3945,1.2907 -0.021,0.0286 -0.066,0.15042 -0.1014,0.27239 -0.074,0.26017 -0.5612,1.52785 -0.6968,1.81532 -0.052,0.10922 -0.1635,0.35521 -0.2489,0.5466 -0.3057,0.68546 -0.7834,1.59157 -1.4437,2.73821 -0.2934,0.50955 -1.255,1.92168 -1.684,2.47283 -1.7634,2.26585 -3.8942,4.32149 -6.0405,5.82748 -0.52,0.36465 -1.4188,0.95572 -1.6836,1.10697 -0.084,0.0486 -0.3894,0.2222 -0.6763,0.38592 -0.5375,0.30654 -1.605,0.85553 -2.0867,1.07306 -0.5831,0.26326 -0.7427,0.3299 -1.4159,0.59125 -1.3494,0.52387 -2.3008,0.82243 -3.5274,1.10688 -0.2733,0.0642 -0.5719,0.1386 -0.6636,0.1672 -0.092,0.0284 -0.3489,0.077 -0.5714,0.10789 -0.2225,0.0312 -0.5289,0.0871 -0.6807,0.12485 -0.241,0.0596 -1.2165,0.17857 -2.6303,0.31973 -0.4928,0.0495 -3.391,0.0495 -3.8999,-5.5e-4 z m 3.1548,-5.02106 c 1.6935,-0.0834 2.9331,-0.27088 4.4714,-0.67531 0.1503,-0.0394 0.4297,-0.11312 0.6209,-0.16317 0.4388,-0.11577 1.8005,-0.58602 2.0942,-0.72408 0.086,-0.0403 0.1753,-0.0742 0.198,-0.0742 0.022,0 0.1537,-0.055 0.2907,-0.1209 0.137,-0.066 0.5285,-0.25291 0.87,-0.4148 1.2061,-0.57154 2.4366,-1.30433 3.4439,-2.05062 1.1006,-0.81548 1.675,-1.29798 2.5358,-2.12946 0.4661,-0.45038 1.5827,-1.68621 1.9074,-2.11111 1.2398,-1.62277 1.9596,-2.77552 2.6549,-4.25267 0.1609,-0.34156 0.3278,-0.68819 0.3711,-0.77011 0.043,-0.082 0.1196,-0.26082 0.1687,-0.39746 0.049,-0.13665 0.1589,-0.42725 0.243,-0.64594 0.2302,-0.59809 0.4814,-1.3574 0.5506,-1.66425 0.034,-0.15029 0.082,-0.31165 0.1053,-0.35872 0.025,-0.0468 0.086,-0.28162 0.1374,-0.52164 0.052,-0.23988 0.1287,-0.58157 0.171,-0.75917 0.2157,-0.89714 0.3593,-2.06705 0.4288,-3.49193 0.096,-1.9694 -0.077,-4.284 -0.4288,-5.74906 -0.043,-0.1776 -0.1196,-0.51916 -0.171,-0.75917 -0.052,-0.24002 -0.1131,-0.47471 -0.1374,-0.52164 -0.025,-0.0469 -0.072,-0.20843 -0.1053,-0.3586 -0.069,-0.30697 -0.3204,-1.06628 -0.5506,-1.66437 -0.084,-0.21869 -0.1934,-0.50929 -0.243,-0.64594 -0.05,-0.13664 -0.1261,-0.31542 -0.1687,-0.39746 -0.043,-0.082 -0.2102,-0.42842 -0.3711,-0.76998 -0.561,-1.19175 -1.2985,-2.43148 -2.0486,-3.44382 -0.8156,-1.10061 -1.298,-1.67504 -2.1296,-2.53576 -0.4502,-0.46612 -1.686,-1.58272 -2.111,-1.90738 -1.6183,-1.23649 -2.7584,-1.94886 -4.2528,-2.65694 -0.3415,-0.16188 -0.733,-0.34858 -0.87,-0.41477 -0.137,-0.0663 -0.2678,-0.12091 -0.2907,-0.12091 -0.023,0 -0.1117,-0.0326 -0.198,-0.0728 -0.3645,-0.16889 -1.737,-0.63761 -2.119,-0.72368 -0.1503,-0.0338 -0.3117,-0.082 -0.3586,-0.10532 -0.047,-0.0247 -0.2816,-0.0858 -0.5216,-0.13742 -0.24,-0.052 -0.5816,-0.12872 -0.7592,-0.17098 -0.8928,-0.21467 -2.0578,-0.35821 -3.4902,-0.42985 -1.9506,-0.0975 -4.2808,0.0767 -5.7507,0.42985 -0.1777,0.0429 -0.5192,0.11961 -0.7592,0.17098 -0.2401,0.0507 -0.4748,0.11311 -0.5217,0.13742 -0.047,0.0247 -0.2083,0.0715 -0.3586,0.10532 -0.382,0.0858 -1.7545,0.55479 -2.1191,0.72368 -0.086,0.0403 -0.1752,0.0728 -0.198,0.0728 -0.022,0 -0.1535,0.0546 -0.2906,0.12091 -0.137,0.0663 -0.5285,0.25289 -0.8701,0.41477 -1.4942,0.70808 -2.6344,1.42045 -4.2528,2.65694 -0.4227,0.3231 -1.6588,1.43944 -2.1117,1.90738 -0.8268,0.8541 -1.3032,1.4215 -2.1289,2.53576 -0.7462,1.00726 -1.479,2.23776 -2.0505,3.44382 -0.1618,0.34156 -0.3486,0.73305 -0.4148,0.87009 -0.066,0.13704 -0.1209,0.26784 -0.1209,0.29059 0,0.0221 -0.032,0.11181 -0.074,0.19802 -0.1381,0.29385 -0.6088,1.6554 -0.724,2.09422 -0.05,0.19126 -0.1235,0.47067 -0.1632,0.62097 -0.4098,1.55789 -0.5927,2.78098 -0.6781,4.53533 -0.1171,2.38741 0.1066,4.61788 0.6781,6.7922 0.04,0.1503 0.1132,0.42971 0.1632,0.6211 0.1158,0.43869 0.5859,1.80037 0.724,2.09409 0.04,0.0858 0.074,0.17527 0.074,0.19802 0,0.0234 0.055,0.15355 0.1209,0.29059 0.066,0.13704 0.253,0.52866 0.4148,0.87022 0.7108,1.4999 1.4234,2.64043 2.6567,4.25267 0.3258,0.42594 1.4426,1.66177 1.9077,2.11111 0.8607,0.83148 1.4352,1.31398 2.5357,2.12946 1.0073,0.74629 2.2378,1.47908 3.4438,2.05062 0.3416,0.16189 0.7331,0.34852 0.8701,0.4148 0.1371,0.066 0.2679,0.1209 0.2906,0.1209 0.023,0 0.1119,0.033 0.198,0.0742 0.2939,0.13806 1.6554,0.60886 2.0943,0.72408 0.1913,0.0504 0.4707,0.12348 0.6209,0.16317 1.4629,0.38473 2.8373,0.59923 4.3062,0.67201 1.2269,0.0614 1.3797,0.0614 2.55,0 z m -17.8793,-12.62072 c -0.061,-0.0572 -0.1328,-0.15927 -0.1583,-0.22675 -0.029,-0.0754 -0.047,-3.69658 -0.047,-9.2874 0,-9.83582 -0.013,-9.42053 0.2409,-9.55511 0.069,-0.0364 1.0348,-0.0533 3.0598,-0.0533 h 2.9593 V 961.377 c 0,-0.0689 0.034,-0.1386 0.074,-0.15434 0.04,-0.0156 0.074,-0.0702 0.074,-0.12092 0,-0.17435 0.1584,-0.19515 1.4837,-0.19515 1.1078,0 1.3026,0.013 1.3695,0.078 0.043,0.0429 0.078,0.10011 0.078,0.12742 0,0.0273 0.034,0.0832 0.074,0.12352 0.041,0.0416 0.074,0.11831 0.074,0.17032 0,0.0949 0.1809,0.0962 11.9783,0.0962 h 11.9782 l 0.1442,0.15433 0.1442,0.15433 v 9.31392 9.31405 l -0.1452,0.14523 -0.1452,0.14524 h -16.5636 -16.5634 z m 20.5125,-0.73993 c 2.0461,-0.15213 3.9839,-1.03288 5.5008,-2.5004 1.6505,-1.59677 2.6121,-3.86665 2.6135,-6.16967 4e-4,-0.64399 -0.047,-1.07045 -0.2225,-1.98735 -0.031,-0.16395 -0.073,-0.32036 -0.094,-0.34766 -0.019,-0.0273 -0.053,-0.12742 -0.072,-0.22364 -0.069,-0.33505 -0.5663,-1.48859 -0.7707,-1.78724 -0.047,-0.0689 -0.1686,-0.25432 -0.2696,-0.41164 -0.4996,-0.77895 -1.3179,-1.64826 -2.087,-2.21735 -1.0128,-0.7493 -2.1592,-1.27575 -3.332,-1.53033 -0.9261,-0.20101 -1.1939,-0.22493 -2.2356,-0.2001 -0.8743,0.0208 -1.0713,0.0416 -1.6396,0.17228 -1.6375,0.37667 -2.9172,1.03417 -4.1009,2.10709 -1.4711,1.33322 -2.4708,3.17884 -2.754,5.08453 -0.1321,0.88804 -0.061,2.94571 0.1144,3.29274 0.023,0.0468 0.082,0.25327 0.1308,0.45818 0.048,0.20505 0.1053,0.39501 0.1261,0.42231 0.021,0.0273 0.054,0.10531 0.074,0.17396 0.07,0.24548 0.4457,1.02663 0.6918,1.44074 0.6553,1.10308 1.8492,2.30927 2.9102,2.94091 0.3253,0.1936 1.4246,0.73565 1.492,0.73565 0.031,0 0.1952,0.0533 0.3638,0.11831 0.4727,0.18229 1.4213,0.38304 2.0102,0.42529 0.761,0.0546 0.8601,0.0546 1.5506,0 z m -1.4432,-1.31124 c -0.015,-0.0143 -0.2636,-0.0611 -0.5542,-0.10402 -0.6705,-0.10012 -1.4267,-0.34169 -2.0642,-0.66076 -0.4448,-0.22273 -0.6719,-0.35937 -1.2326,-0.74124 -0.088,-0.0598 -0.3636,-0.30268 -0.6121,-0.53919 -0.8793,-0.83667 -1.5179,-1.82651 -1.9063,-2.9539 -0.3766,-1.0936 -0.5099,-2.43097 -0.3339,-3.3532 0.026,-0.13664 0.083,-0.43855 0.1274,-0.67077 0.044,-0.23221 0.1092,-0.48939 0.1451,-0.5713 0.037,-0.0819 0.094,-0.23846 0.1274,-0.3478 0.142,-0.45975 0.5968,-1.28225 1.0219,-1.84822 1.1564,-1.53983 2.9931,-2.61807 4.9062,-2.88032 3.0076,-0.41216 5.8355,0.87971 7.4535,3.40495 0.2465,0.38459 0.6256,1.14416 0.6256,1.25325 0,0.0416 0.022,0.0962 0.048,0.12352 0.071,0.0702 0.2919,0.91871 0.3758,1.43736 0.09,0.55271 0.088,1.59846 0,2.16117 -0.3316,2.07719 -1.4576,3.84883 -3.1803,5.00328 -0.6438,0.4314 -1.0488,0.63136 -1.8381,0.9074 -0.4686,0.16382 -0.5545,0.18541 -1.1428,0.28747 -0.4323,0.0754 -1.9127,0.14471 -1.9649,0.0923 z m 2.0954,-1.25248 c 1.5217,-0.34078 2.8187,-1.17147 3.7414,-2.39626 0.5028,-0.66751 0.8409,-1.40108 1.1035,-2.39352 0.1054,-0.39863 0.1447,-1.68842 0.069,-2.24738 -0.2673,-1.95601 -1.5878,-3.76795 -3.3896,-4.65091 -0.7292,-0.3573 -0.9312,-0.42841 -1.6299,-0.57378 -1.3491,-0.28071 -2.784,-0.10662 -4.0237,0.48901 -1.2789,0.6142 -2.2042,1.50159 -2.9265,2.80685 -0.2175,0.39278 -0.4709,1.14989 -0.6082,1.81636 -0.066,0.31908 -0.066,1.76255 0,2.08655 0.2796,1.3851 0.865,2.47557 1.8291,3.40781 0.6538,0.63202 1.3243,1.05887 2.2035,1.40278 1.0885,0.42568 2.4396,0.51967 3.6331,0.25249 z m -1.7701,-1.49093 c -0.6695,-0.0611 -1.2129,-0.21297 -1.7794,-0.49941 -1.2975,-0.65633 -2.2711,-1.9759 -2.4721,-3.35098 -0.1001,-0.68429 -0.019,-1.83821 0.1547,-2.20578 0.026,-0.0546 0.081,-0.19658 0.1209,-0.31542 0.153,-0.44453 0.5398,-1.01883 0.9942,-1.47637 0.6399,-0.64425 1.1215,-0.94147 1.9876,-1.2266 0.3771,-0.12482 0.552,-0.15121 1.1178,-0.17279 0.9719,-0.0377 1.6761,0.10011 2.4095,0.47106 0.8846,0.44687 1.7075,1.27301 2.0907,2.09903 0.2189,0.47131 0.2652,0.60589 0.3593,1.04339 0.1396,0.64971 0.164,0.9563 0.1105,1.39109 -0.096,0.7753 -0.1807,1.05562 -0.5391,1.77853 -0.5767,1.16263 -1.9311,2.1756 -3.1887,2.38455 -0.3838,0.0637 -1.0878,0.10532 -1.3662,0.0793 z m 0.9608,-2.70011 c 0.3955,-0.12612 0.4797,-0.17266 0.7864,-0.43193 0.8147,-0.68896 0.9072,-1.98902 0.1997,-2.79995 -0.4024,-0.46118 -0.9531,-0.70913 -1.5664,-0.70536 -0.7192,0 -1.4683,0.43648 -1.7837,1.02884 -0.1381,0.25926 -0.2612,0.71693 -0.2612,0.97112 0,0.52137 0.2793,1.1309 0.6824,1.48975 0.2328,0.20725 0.7135,0.46222 0.9572,0.50773 0.2961,0.0559 0.702,0.0299 0.9856,-0.0598 z m -17.4572,6.28214 c 0.1131,-0.2157 0.1419,-0.22247 0.5236,-0.12352 0.1408,0.0364 0.4348,0.0481 0.7949,0.0325 0.4715,-0.0208 0.6364,-0.0507 0.944,-0.16942 0.5287,-0.20399 0.9551,-0.49043 1.2767,-0.8576 l 0.1522,-0.17384 -0.5033,9.2e-4 c -0.4609,0 -0.52,0.013 -0.7021,0.13444 -0.1092,0.0728 -0.3664,0.18917 -0.5713,0.25847 -0.9329,0.31557 -2.0115,0.0143 -2.6676,-0.74605 -0.457,-0.52943 -0.6167,-0.96409 -0.6183,-1.68257 0,-0.76867 0.1948,-1.25481 0.7241,-1.79348 0.3185,-0.32388 0.8359,-0.61513 1.2701,-0.71472 0.6128,-0.14042 1.4221,0.013 1.9127,0.36184 0.1287,0.091 0.218,0.10662 0.6526,0.10662 h 0.5034 l -0.1506,-0.17137 c -0.083,-0.0936 -0.2422,-0.24535 -0.3543,-0.3357 -0.1118,-0.0897 -0.231,-0.18658 -0.2642,-0.21389 -0.047,-0.0377 -0.038,-0.10271 0.039,-0.27993 0.055,-0.12742 0.092,-0.23559 0.084,-0.24197 -0.039,-0.0338 -0.4265,-0.21466 -0.5232,-0.24456 -0.098,-0.0299 -0.1248,0 -0.2107,0.19581 -0.075,0.17709 -0.1184,0.22402 -0.1861,0.20296 -0.4199,-0.1321 -1.1356,-0.16499 -1.6307,-0.0754 -0.1621,0.0299 -0.5032,0.15525 -0.758,0.27942 -0.9088,0.4431 -1.5798,1.29967 -1.7709,2.26078 -0.099,0.49966 -0.095,0.80988 0.018,1.35817 0.1658,0.80352 0.6188,1.48781 1.3183,1.99137 l 0.1455,0.10532 -0.1001,0.24249 -0.1001,0.24261 0.2524,0.13418 c 0.1388,0.0741 0.2844,0.13003 0.3237,0.12482 0.039,0 0.1183,-0.10011 0.1753,-0.20881 z m 3.7235,-1.9174 c 0.1066,-0.0299 0.2801,-0.11051 0.385,-0.18033 l 0.1909,-0.12612 v -0.68884 -0.68897 h -0.5961 -0.5962 v 0.27317 0.27329 h 0.3476 0.3479 v 0.27201 c 0,0.25094 -0.013,0.27785 -0.1466,0.3478 -0.3304,0.17084 -0.8447,0.0468 -1.1097,-0.26836 -0.2238,-0.26615 -0.2731,-0.76971 -0.1079,-1.09672 0.086,-0.16966 0.316,-0.38004 0.485,-0.44388 0.2068,-0.078 0.6133,-0.0637 0.7898,0.0273 0.1492,0.0767 0.1581,0.0754 0.2475,-0.0377 0.1913,-0.2421 0.1992,-0.28227 0.072,-0.36575 -0.2875,-0.1884 -0.8861,-0.23222 -1.2902,-0.0949 -0.5189,0.17683 -0.9263,0.77777 -0.9272,1.36793 -6e-4,0.51019 0.2241,0.91755 0.7071,1.28121 0.2495,0.18787 0.8093,0.25704 1.2007,0.14835 z m 2.6616,-0.0572 c 0.2787,-0.14249 0.4985,-0.41839 0.5513,-0.69235 0.024,-0.11831 0.043,-0.63358 0.044,-1.14598 v -0.93146 h -0.2483 -0.2484 v 0.94225 c 0,1.0395 -0.037,1.20554 -0.2991,1.36052 -0.227,0.13418 -0.4324,0.10531 -0.625,-0.0871 l -0.1688,-0.16889 v -1.02338 -1.02352 h -0.2511 -0.2511 l 0.016,1.11374 0.016,1.11375 0.149,0.21141 c 0.2987,0.4236 0.8584,0.56441 1.3155,0.3309 z m -4.6692,0.0377 c 0,-0.013 -0.081,-0.13666 -0.1785,-0.27331 l -0.1785,-0.24846 h -0.5169 -0.5171 v -0.29619 -0.29618 l 0.427,-0.0143 0.4271,-0.0143 0.013,-0.26082 0.013,-0.26082 h -0.4357 -0.4357 v -0.32297 -0.32296 l 0.5341,-5.3e-4 0.5342,-6.5e-4 0.1235,-0.18502 c 0.069,-0.10141 0.1421,-0.21322 0.164,-0.24781 0.031,-0.0494 -0.1563,-0.0624 -0.9068,-0.0624 h -0.9465 v 1.41591 1.41604 h 0.944 c 0.5191,0 0.9439,-0.013 0.9439,-0.0248 z m 4.9683,-12.69404 v -1.78854 h -3.6021 -3.6018 v 1.78854 1.78867 h 3.6018 3.6021 z"
         id="path1089"
         sodipodi:nodetypes="sssscssssssssccsssssscsssscsssssssssssssssssssssssssssssssscsccsscssscsssccscscsssssssssssssssscccsssssssssssscscsscsssssssssssssssssssssssssssssssscsccccsssssssssscccscccsssscsssssscsscccccccccccsssccssssssssscsssssssccsssssssscssssscscssscscsscssssccssccsssscsssssscssssssscsssssscsssscsssscssssccssscsscsscsscccssccsscccccccccscsssssssssssscccccssscccccccssscsccccccccccccccccsscccsccccccccccc" /><path
         style="fill:#ffffff;stroke-width:0.0599639"
         d="m 1458.7077,980.99258 c -0.4655,-0.102 -0.7741,-0.25987 -1.0557,-0.54265 -0.2661,-0.26725 -0.3698,-0.54218 -0.3727,-0.98817 0,-0.56948 0.3704,-1.04576 0.9895,-1.26028 l 0.2138,-0.0738 -0.2321,-0.21672 c -0.2405,-0.22487 -0.3358,-0.48537 -0.2967,-0.81147 0.016,-0.11612 0.1287,-0.27948 0.3369,-0.48349 l 0.3161,-0.30852 -0.1959,-0.12868 c -0.4576,-0.29988 -0.6959,-0.82182 -0.6963,-1.52407 -4e-4,-1.10037 0.6568,-1.76354 1.8865,-1.90321 0.2998,-0.0345 0.6616,-0.0345 0.9141,0 0.2299,0.0298 0.8968,0.0549 1.4823,0.0549 h 1.0643 v 0.41742 0.41743 l -0.2282,0.0612 c -0.1255,0.0345 -0.3143,0.0785 -0.4196,0.10043 -0.1052,0.0204 -0.1916,0.0502 -0.1916,0.0643 0,0.0157 0.044,0.1607 0.097,0.32516 0.1318,0.4044 0.088,1.01892 -0.102,1.39853 -0.1777,0.35559 -0.5173,0.66568 -0.928,0.84724 -0.3584,0.15866 -1.2514,0.29738 -1.5515,0.24104 -0.2652,-0.0502 -0.3689,-10e-4 -0.4581,0.21358 -0.066,0.16038 -0.06,0.19396 0.055,0.30946 0.1208,0.12083 0.206,0.13182 1.2833,0.16509 1.0171,0.0314 1.1892,0.0518 1.4535,0.16917 0.5679,0.25312 0.8646,0.67462 0.9149,1.29904 0.086,1.08216 -0.661,1.8726 -2.0366,2.15225 -0.5618,0.11455 -1.7284,0.11612 -2.243,0 z m 1.7342,-0.99695 c 0.7047,-0.10828 1.1207,-0.40032 1.1207,-0.78495 0,-0.44803 -0.2492,-0.54563 -1.409,-0.5516 -0.7077,0 -0.8757,0.0157 -1.069,0.10828 -0.6481,0.31982 -0.5456,1.01344 0.1786,1.20818 0.3677,0.0989 0.6371,0.10357 1.1787,0.0188 z m 0.044,-4.40148 c 0.268,-0.1381 0.3846,-0.41084 0.3846,-0.89857 0,-0.72343 -0.2827,-1.02787 -0.9065,-0.97608 -0.5471,0.0455 -0.7735,0.38792 -0.7282,1.10131 0.027,0.41256 0.1538,0.65407 0.4143,0.7884 0.1987,0.102 0.624,0.0942 0.8358,-0.0157 z m -43.278,3.02711 c -1.1028,-0.19851 -1.8748,-0.89307 -2.1528,-1.93694 -0.1082,-0.4077 -0.1051,-1.47213 0,-1.94496 0.1954,-0.82888 0.7735,-1.55875 1.4289,-1.80387 0.926,-0.34649 2.0731,-0.25987 2.7476,0.20762 0.6887,0.47721 1.01,1.22654 1.01,2.35562 v 0.60606 h -1.829 -1.8288 l 3e-4,0.13495 c 0,0.5064 0.4169,1.05392 0.9001,1.18543 0.4217,0.11455 1.2082,0.0392 1.8546,-0.1767 0.3024,-0.102 0.5627,-0.18423 0.5786,-0.18423 0.016,0 0.02,0.27666 0.016,0.61468 l -0.017,0.61468 -0.5097,0.17089 c -0.4152,0.13967 -0.6373,0.17498 -1.1992,0.19208 -0.3793,0.0157 -0.83,0 -1.0016,-0.0345 z m 1.5157,-3.85035 c -0.093,-0.57639 -0.443,-0.88491 -1.0068,-0.88491 -0.3851,0 -0.5293,0.0533 -0.7803,0.28717 -0.1538,0.14438 -0.2272,0.30428 -0.3119,0.68734 l -0.036,0.16493 h 1.0883 1.0881 z m 11.2986,3.84486 c -0.7319,-0.11926 -1.4139,-0.62268 -1.694,-1.2518 -0.2834,-0.63666 -0.3742,-1.86194 -0.1943,-2.62461 0.344,-1.4591 1.495,-2.18049 3.1751,-1.98951 0.4785,0.0549 1.2063,0.24826 1.3003,0.34633 0.039,0.0408 -0.3391,1.07825 -0.4264,1.16958 -0.027,0.0267 -0.2682,-0.0204 -0.5376,-0.10514 -0.5794,-0.18313 -0.9607,-0.19428 -1.3042,-0.0377 -0.4639,0.21059 -0.6745,0.70679 -0.6772,1.59657 0,0.84709 0.2762,1.42913 0.761,1.5892 0.3891,0.12868 1.0952,0.0377 1.6086,-0.20573 l 0.4473,-0.21233 v 0.68217 0.68216 l -0.318,0.15535 c -0.5236,0.25627 -1.343,0.33489 -2.1406,0.20558 z m 5.5232,0 c -0.7584,-0.14908 -1.4717,-0.70115 -1.7968,-1.391 -0.2315,-0.49102 -0.3084,-0.88554 -0.3084,-1.58166 0,-1.2821 0.4775,-2.17893 1.3981,-2.6257 1.1852,-0.57514 2.7919,-0.29565 3.5051,0.60981 0.4504,0.572 0.6446,1.20913 0.6357,2.08525 -0.016,1.58433 -0.7054,2.56905 -2.0149,2.87772 -0.409,0.0973 -1.0033,0.10671 -1.4188,0.0251 z m 1.2588,-1.39163 c 0.3009,-0.20259 0.476,-0.56556 0.5262,-1.09001 0.061,-0.63414 0,-1.2234 -0.1781,-1.5699 -0.2464,-0.49714 -0.8567,-0.69471 -1.433,-0.46418 -0.4437,0.17764 -0.658,0.68639 -0.6593,1.5644 0,1.21508 0.3314,1.69669 1.1746,1.69685 0.2822,0 0.4126,-0.0314 0.5696,-0.13653 z m 4.8157,1.39226 c -0.135,-0.033 -0.3911,-0.14594 -0.5692,-0.25265 -0.3746,-0.22378 -0.669,-0.6558 -0.771,-1.13145 -0.038,-0.17654 -0.064,-1.13364 -0.064,-2.3641 v -2.06767 l 0.7945,0.0173 0.7945,0.0173 0.03,2.01164 c 0.027,1.78928 0.041,2.02954 0.135,2.17297 0.1746,0.26615 0.3772,0.3625 0.7529,0.35779 0.4151,0 0.6108,-0.0753 0.8132,-0.29424 0.3259,-0.35151 0.3572,-0.55489 0.3828,-2.49592 l 0.024,-1.78567 0.7898,0.0173 0.7898,0.0173 0.016,2.86344 0.016,2.86329 h -0.6285 -0.6285 l -0.099,-0.34477 c -0.055,-0.18973 -0.1068,-0.3545 -0.1177,-0.36611 -0.016,-0.0157 -0.1036,0.0753 -0.2077,0.19365 -0.1035,0.11769 -0.361,0.29973 -0.5718,0.40345 -0.3239,0.15944 -0.4642,0.19161 -0.9092,0.20856 -0.2896,0.0157 -0.6367,0 -0.7716,-0.0392 z m 10.7716,-0.0581 c -0.675,-0.24277 -1.0486,-0.82921 -1.0496,-1.64695 -3e-4,-0.26395 0.036,-0.5855 0.082,-0.71465 0.1146,-0.32687 0.4934,-0.71731 0.8432,-0.8678 0.3906,-0.16791 1.0671,-0.30648 1.4966,-0.30648 0.191,0 0.513,-0.0173 0.7158,-0.0392 l 0.3686,-0.0377 v -0.26709 c 0,-0.78558 -0.7192,-0.98927 -1.9701,-0.55819 -0.2826,0.0973 -0.5181,0.17168 -0.5232,0.16493 0,0 -0.1192,-0.24842 -0.2534,-0.53732 l -0.2442,-0.52508 0.1612,-0.0816 c 0.314,-0.15849 0.9474,-0.33315 1.449,-0.39953 0.9615,-0.12711 1.8794,0.0628 2.3637,0.48867 0.5828,0.51315 0.636,0.79389 0.636,3.36435 v 1.9699 l -0.5765,-0.0173 -0.5766,-0.0173 -0.1208,-0.3297 c -0.066,-0.18141 -0.1318,-0.34163 -0.1444,-0.35591 -0.016,-0.0157 -0.124,0.069 -0.2468,0.18548 -0.3492,0.33002 -0.5706,0.46043 -0.9487,0.55898 -0.4795,0.12554 -1.062,0.11298 -1.4611,-0.0314 z m 1.9217,-1.21681 c 0.3769,-0.19883 0.5318,-0.49621 0.5331,-1.02348 v -0.41335 l -0.5361,0.0408 c -0.9858,0.0738 -1.3329,0.30993 -1.3329,0.90437 0,0.46121 0.187,0.62081 0.7352,0.6274 0.241,0 0.4096,-0.0345 0.5996,-0.13496 z m 11.5854,1.27675 c -1.1028,-0.19851 -1.8748,-0.89307 -2.1527,-1.93695 -0.1083,-0.40769 -0.1051,-1.47213 0,-1.94495 0.1955,-0.82888 0.7735,-1.55859 1.4288,-1.80387 0.9261,-0.34649 2.0733,-0.25987 2.7478,0.20761 0.6886,0.47722 1.0098,1.22654 1.0098,2.35563 v 0.60605 h -1.8288 -1.829 l 5e-4,0.13496 c 0,0.5064 0.417,1.05376 0.9001,1.18543 0.4217,0.11455 1.2082,0.0392 1.8544,-0.1767 0.3024,-0.10201 0.5628,-0.18424 0.5786,-0.18424 0.016,0 0.02,0.27667 0.016,0.61469 l -0.017,0.61468 -0.5097,0.17089 c -0.4154,0.13967 -0.6373,0.17498 -1.1993,0.19208 -0.3793,0.0157 -0.83,0 -1.0015,-0.0345 z m 1.5158,-3.85035 c -0.093,-0.5764 -0.4432,-0.88491 -1.0069,-0.88491 -0.3852,0 -0.5293,0.0534 -0.7804,0.28717 -0.1537,0.14437 -0.227,0.30428 -0.3119,0.68734 l -0.036,0.16493 h 1.0881 1.0881 z m 4.0729,3.86039 c -0.5865,-0.15378 -1.0097,-0.52821 -1.3104,-1.15811 -0.2586,-0.54156 -0.3389,-0.96605 -0.3375,-1.78411 0,-1.42316 0.4322,-2.34558 1.2899,-2.76787 0.3313,-0.16305 0.4534,-0.19067 0.852,-0.19271 0.6299,0 1.0132,0.13182 1.4172,0.50138 l 0.3207,0.29314 -0.049,-0.25312 c -0.027,-0.13966 -0.05,-0.7997 -0.052,-1.46758 v -1.2143 h 0.7796 0.7795 v 3.98767 3.98767 h -0.6026 -0.6028 l -0.094,-0.22488 c -0.052,-0.12397 -0.1193,-0.28953 -0.1491,-0.36862 -0.055,-0.1428 -0.055,-0.1428 -0.3093,0.1224 -0.3559,0.37145 -0.7423,0.53967 -1.2991,0.56572 -0.2482,0.0157 -0.5323,0 -0.6313,-0.0267 z m 1.6593,-1.36463 c 0.3777,-0.19035 0.5403,-0.65533 0.5372,-1.53631 0,-1.02725 -0.2351,-1.51576 -0.7886,-1.66468 -0.6384,-0.172 -1.1547,0.13652 -1.3491,0.80487 -0.1553,0.5334 -0.1083,1.52329 0.093,1.92079 0.1665,0.33158 0.3652,0.50201 0.6662,0.57168 0.2451,0.0565 0.6245,0.0157 0.8423,-0.0957 z m -51.6848,-1.5666 0.016,-2.86344 0.6062,-0.0173 0.6062,-0.0173 0.102,0.36188 c 0.056,0.19898 0.1162,0.36171 0.135,0.36171 0.019,0 0.1334,-0.102 0.2548,-0.22754 0.7742,-0.79766 2.4418,-0.76706 3.1478,0.0581 0.4195,0.49008 0.455,0.73316 0.455,3.11437 v 2.09246 h -0.8095 -0.8095 v -1.93381 c 0,-1.78645 -0.016,-1.95358 -0.1177,-2.19101 -0.1522,-0.33457 -0.4262,-0.45948 -0.9124,-0.41554 -0.5825,0.0534 -0.8671,0.36266 -1.0016,1.09017 -0.036,0.1971 -0.066,1.04011 -0.066,1.90211 v 1.54808 h -0.8101 -0.8101 l 0.016,-2.86328 z m 25.6646,0 0.016,-2.86344 0.6043,-0.0173 0.6044,-0.0173 0.1098,0.48177 c 0.061,0.26489 0.1287,0.48176 0.1522,0.48176 0.024,0 0.113,-0.10043 0.1987,-0.22487 0.4005,-0.57483 1.1409,-0.90673 1.816,-0.8143 l 0.2747,0.0377 -0.038,0.45571 c -0.02,0.25061 -0.052,0.57781 -0.071,0.72704 l -0.033,0.27117 h -0.4309 c -0.7307,0 -1.1826,0.22739 -1.4361,0.70131 -0.1286,0.24072 -0.1349,0.3239 -0.1522,1.94542 l -0.019,1.69402 h -0.8066 -0.8068 l 0.016,-2.86328 z m 7.9841,-6.10069 c -0.4656,-0.102 -0.7742,-0.25987 -1.0558,-0.54249 -0.2661,-0.26725 -0.3698,-0.54219 -0.3727,-0.98817 0,-0.56965 0.3704,-1.04592 0.9895,-1.26044 l 0.2139,-0.0737 -0.2321,-0.21672 c -0.2406,-0.22487 -0.3359,-0.48537 -0.2968,-0.81147 0.016,-0.11612 0.1287,-0.27948 0.3369,-0.48349 l 0.3161,-0.30852 -0.1959,-0.12868 c -0.4576,-0.29988 -0.6959,-0.82167 -0.6962,-1.52391 -5e-4,-1.10053 0.6567,-1.7637 1.8864,-1.90337 0.2999,-0.0345 0.6616,-0.0345 0.9141,0 0.2299,0.0298 0.8968,0.0549 1.4823,0.0565 l 1.0643,0.002 v 0.41743 0.41743 l -0.228,0.0612 c -0.1256,0.0345 -0.3145,0.0785 -0.4198,0.10043 -0.1052,0.0204 -0.1916,0.0502 -0.1916,0.0643 0,0.0157 0.044,0.16085 0.097,0.32531 0.1318,0.4044 0.088,1.01877 -0.102,1.39837 -0.1777,0.3556 -0.5173,0.66569 -0.9278,0.84725 -0.3586,0.15865 -1.2516,0.29738 -1.5515,0.24104 -0.2654,-0.0502 -0.3691,-10e-4 -0.4582,0.21358 -0.066,0.16038 -0.06,0.19396 0.055,0.30946 0.1208,0.12083 0.2059,0.13182 1.2832,0.16509 1.017,0.0314 1.1892,0.0518 1.4534,0.16916 0.5679,0.25328 0.8647,0.67463 0.9149,1.2992 0.086,1.08217 -0.661,1.87245 -2.0366,2.15209 -0.5618,0.11456 -1.7284,0.11613 -2.2428,0 z m 1.7341,-0.9968 c 0.7047,-0.10828 1.1208,-0.40032 1.1208,-0.78494 0,-0.44819 -0.2492,-0.5458 -1.4091,-0.55176 -0.7077,0 -0.8755,0.0157 -1.0688,0.10828 -0.6483,0.31982 -0.5458,1.01359 0.1784,1.20834 0.3678,0.0989 0.6371,0.10357 1.1787,0.0188 z m 0.044,-4.40164 c 0.2682,-0.13809 0.3847,-0.41083 0.3847,-0.89856 0,-0.72343 -0.2827,-1.02771 -0.9066,-0.97593 -0.5471,0.0455 -0.7735,0.38777 -0.7282,1.10116 0.027,0.41272 0.1538,0.65423 0.4145,0.7884 0.1985,0.102 0.6239,0.0942 0.8356,-0.0157 z m -35.2608,3.04768 c -0.2913,-0.0487 -0.8727,-0.20306 -1.1242,-0.29832 l -0.2549,-0.0957 v -0.76549 -0.76549 l 0.4207,0.1767 c 0.9501,0.39922 2.0261,0.53622 2.4884,0.31683 0.2422,-0.11455 0.3889,-0.35073 0.3889,-0.62519 0,-0.43689 -0.2989,-0.70052 -1.3822,-1.21901 -0.9307,-0.44536 -1.4199,-0.87173 -1.6975,-1.47935 -0.1612,-0.35261 -0.1692,-1.09519 -0.017,-1.54228 0.3607,-1.058 1.7062,-1.60253 3.236,-1.30986 0.4627,0.0879 1.2799,0.34979 1.3672,0.43719 0.036,0.0361 -0.3657,1.15451 -0.4506,1.25683 0,0 -0.238,-0.0706 -0.5177,-0.17105 -0.5978,-0.21452 -1.4329,-0.29612 -1.7374,-0.16995 -0.272,0.11299 -0.4203,0.33363 -0.4178,0.62268 0,0.45933 0.135,0.58409 1.1371,1.08657 1.0803,0.54124 1.6281,0.96447 1.8806,1.45282 0.1554,0.30115 0.228,0.87079 0.1623,1.27896 -0.1573,0.97655 -0.8374,1.58307 -2.0088,1.79179 -0.344,0.0612 -1.1657,0.0737 -1.4733,0.022 z m 12.2954,-0.08 c -0.675,-0.24277 -1.0486,-0.8292 -1.0496,-1.64695 -3e-4,-0.26395 0.036,-0.58549 0.082,-0.71464 0.1146,-0.32688 0.4934,-0.71716 0.8432,-0.86765 0.3906,-0.16807 1.0671,-0.30664 1.4966,-0.30664 0.191,0 0.513,-0.0173 0.7158,-0.0377 l 0.3684,-0.0377 v -0.26709 c 0,-0.78542 -0.719,-0.98927 -1.9699,-0.55803 -0.2828,0.0973 -0.5181,0.17167 -0.5232,0.16493 0,0 -0.1192,-0.24858 -0.2534,-0.53732 l -0.2442,-0.52508 0.1612,-0.0816 c 0.314,-0.15865 0.9474,-0.33331 1.449,-0.39969 0.9615,-0.12711 1.8794,0.0628 2.3637,0.48882 0.5828,0.513 0.636,0.79374 0.636,3.3642 v 1.9699 l -0.5765,-0.0173 -0.5766,-0.0173 -0.1208,-0.3297 c -0.066,-0.18141 -0.1318,-0.34163 -0.1444,-0.35591 -0.016,-0.0157 -0.124,0.069 -0.2468,0.18548 -0.3492,0.33002 -0.5706,0.46043 -0.9487,0.55898 -0.4795,0.12554 -1.0621,0.11298 -1.4611,-0.0314 z m 1.9217,-1.21681 c 0.3769,-0.19883 0.5318,-0.49621 0.5331,-1.02348 v -0.41335 l -0.5361,0.0408 c -0.9858,0.0738 -1.3329,0.30993 -1.3329,0.90436 0,0.46121 0.187,0.62081 0.7352,0.6274 0.241,0 0.4096,-0.0345 0.5996,-0.13496 z m 31.2356,1.29684 c -0.1161,-0.0157 -0.4055,-0.08 -0.6446,-0.14908 l -0.4347,-0.12554 v -0.658 c 0,-0.59961 0.016,-0.6547 0.1051,-0.62331 1.0111,0.33221 1.1376,0.35842 1.7625,0.36376 0.7314,0 0.891,-0.0675 0.891,-0.41303 0,-0.27337 -0.1444,-0.38055 -1.2052,-0.89088 -1.3006,-0.62614 -1.552,-0.92163 -1.5528,-1.82427 -6e-4,-0.68122 0.3362,-1.14384 1.0183,-1.39932 0.4633,-0.1734 1.128,-0.23586 1.7608,-0.1654 0.5145,0.0565 1.3141,0.2831 1.4365,0.4055 0.041,0.0408 -0.016,0.23963 -0.1672,0.60244 -0.1255,0.29832 -0.2419,0.54234 -0.2595,0.54234 -0.017,0 -0.1984,-0.0659 -0.4016,-0.14751 -0.8063,-0.32264 -1.6331,-0.32327 -1.7797,-10e-4 -0.102,0.22346 0.072,0.42919 0.5408,0.63916 1.6141,0.72343 1.9697,0.97812 2.1171,1.51576 0.2346,0.85635 -0.097,1.70595 -0.8066,2.05982 -0.5209,0.26018 -1.4734,0.36815 -2.3798,0.26991 z m -40.7755,-4.06566 v -3.98751 h 0.817 0.8168 l -0.025,1.46962 -0.025,1.46962 0.2724,-0.26395 c 0.1491,-0.14437 0.3565,-0.30617 0.4593,-0.35764 0.2991,-0.15065 0.8589,-0.21577 1.3326,-0.15692 0.8099,0.102 1.3234,0.50593 1.5608,1.2292 0.1209,0.36753 0.1287,0.50782 0.1287,2.48698 v 2.09748 h -0.8096 -0.8096 v -1.92078 c 0,-2.07316 -0.016,-2.16638 -0.3228,-2.45277 -0.234,-0.21577 -0.7518,-0.24025 -1.116,-0.0534 -0.5592,0.2878 -0.6599,0.72814 -0.6599,2.88698 v 1.53914 h -0.8094 -0.8096 z m 13.2664,1.12438 0.016,-2.86329 0.6044,-0.0173 0.6043,-0.0173 0.1098,0.48161 c 0.061,0.26505 0.1287,0.48176 0.1522,0.48176 0.024,0 0.113,-0.102 0.1987,-0.22487 0.4003,-0.57483 1.1407,-0.90673 1.816,-0.81414 l 0.2748,0.0377 -0.038,0.45572 c -0.02,0.25061 -0.052,0.5778 -0.071,0.72688 l -0.033,0.27133 h -0.4311 c -0.7305,0 -1.1824,0.22723 -1.4358,0.70131 -0.1287,0.24057 -0.135,0.32389 -0.1523,1.94542 l -0.019,1.69387 h -0.8066 -0.8068 l 0.016,-2.86329 z m 4.7372,0 0.016,-2.86329 0.7945,-0.0173 0.7945,-0.0173 v 2.87992 2.88008 h -0.8102 -0.81 z m 3.238,0 0.016,-2.86329 0.6061,-0.0173 0.6062,-0.0173 0.102,0.36172 c 0.057,0.19898 0.1161,0.36187 0.1349,0.36187 0.019,0 0.1334,-0.102 0.2549,-0.2277 0.7741,-0.79766 2.4416,-0.76706 3.1476,0.0581 0.4195,0.49008 0.4551,0.73316 0.4551,3.11437 v 2.09246 h -0.8096 -0.8094 v -1.93396 c 0,-1.78614 -0.016,-1.95343 -0.1177,-2.19086 -0.1522,-0.33457 -0.4262,-0.45948 -0.9122,-0.41538 -0.5827,0.0533 -0.8672,0.3625 -1.0017,1.09017 -0.036,0.1971 -0.066,1.03995 -0.066,1.90195 v 1.54808 h -0.8102 -0.8101 l 0.016,-2.86328 z m 15.5307,0 0.016,-2.86329 0.7946,-0.0173 0.7945,-0.0173 v 2.87992 2.88008 h -0.8101 -0.81 z m -18.3445,-3.61905 c -0.5193,-0.15065 -0.6503,-0.91692 -0.2251,-1.31645 0.1162,-0.10985 0.2349,-0.14595 0.5287,-0.16509 0.6296,-0.0392 0.9369,0.21797 0.9369,0.78714 0,0.57294 -0.5658,0.88962 -1.2405,0.6944 z m 18.7687,0 c -0.5194,-0.15065 -0.6503,-0.91692 -0.225,-1.31645 0.1161,-0.10985 0.2349,-0.14595 0.5285,-0.16509 0.6296,-0.0392 0.9369,0.21797 0.9369,0.78714 0,0.57294 -0.5656,0.88962 -1.2404,0.6944 z"
         id="path1146"
         sodipodi:nodetypes="cscscscccssscccccccscsssscsccscccsccscccsssscccscssscccsscsccscccsscscccssssssccccsscccssssssssscsssscscssscssscccssccscccccccccssccccscssccsscscssssccccccscccsccsccccscssscccsscsccscccsscsccccssscscscsccccccccscscssccsscscccccccscsscccsccssccccccccccscscsccsscccccccscscscccssscccccccscsssscsccscccsccscccsssscccccccsssssccscsscsssscccscssccsscscssssccccccscccsccsccccscsccsssscscscssssccccccccsccsscccsccscccccccccssscsccssccccccccccccccccccccscsscccscsssccccccccccccccsscsssscss" /></g><g
       id="g1245"
       transform="matrix(0.62909828,0,0,0.62909828,1214.1692,40.824442)"
       style="fill:#ffffff"><g
         id="Layer_1-2"
         data-name="Layer 1-2"
         style="fill:#ffffff"><g
           id="g1162"
           style="fill:#ffffff"><path
             class="cls-1"
             d="M 284.00356,70.490512 H 257.7682 v -3.904297 l 10.51075,-10.564453 c 3.20312,-3.239258 5.31445,-5.550781 6.333,-6.934082 1.01953,-1.382813 1.78418,-2.729981 2.29395,-4.040039 0.50879,-1.310547 0.76367,-2.720703 0.76367,-4.231446 0,-2.129394 -0.64551,-3.817382 -1.9375,-5.063964 -1.29297,-1.246582 -3.08496,-1.870118 -5.37793,-1.870118 -1.65723,0 -3.22656,0.27295 -4.70996,0.818848 -1.4834,0.545899 -3.13477,1.538086 -4.9541,2.975586 l -2.40235,-3.084961 c 3.67579,-3.057129 7.67969,-4.585937 12.01172,-4.585937 3.74903,0 6.6875,0.959961 8.81739,2.879882 2.1289,1.920411 3.19433,4.5 3.19433,7.739258 0,2.530274 -0.70996,5.032715 -2.12988,7.507324 -1.41895,2.475586 -4.07715,5.605469 -7.97168,9.391602 l -8.73535,8.543945 v 0.21875 h 20.5293 z"
             id="path1154"
             style="fill:#ffffff" /><path
             class="cls-1"
             d="m 316.1891,50.480746 c 0,6.897461 -1.08691,12.047852 -3.26172,15.451172 -2.1748,3.403321 -5.50097,5.104492 -9.97851,5.104492 -4.29492,0 -7.56153,-1.742187 -9.79981,-5.227539 -2.23828,-3.485351 -3.3584,-8.594726 -3.3584,-15.328125 0,-6.952636 1.08301,-12.112304 3.24903,-15.479492 2.16601,-3.366699 5.46875,-5.050293 9.90918,-5.050293 4.33203,0 7.62109,1.756348 9.86914,5.268555 2.24805,3.512695 3.37109,8.599609 3.37109,15.26123 z m -21.81152,0 c 0,5.804688 0.68262,10.032227 2.04687,12.679688 1.36524,2.648437 3.54004,3.972656 6.52442,3.972656 3.02148,0 5.20996,-1.342773 6.5664,-4.027344 1.35547,-2.683594 2.03321,-6.892578 2.03321,-12.625 0,-5.733398 -0.67774,-9.933105 -2.03321,-12.599609 -1.35644,-2.665528 -3.54492,-3.999024 -6.5664,-3.999024 -2.98438,0 -5.15918,1.314942 -6.52442,3.944825 -1.36425,2.629882 -2.04687,6.847656 -2.04687,12.653808 z"
             id="path1156"
             style="fill:#ffffff" /><path
             class="cls-1"
             d="m 347.9391,70.490512 h -26.23535 v -3.904297 l 10.51074,-10.564453 c 3.20313,-3.239258 5.31446,-5.550781 6.33301,-6.934082 1.01953,-1.382813 1.78418,-2.729981 2.29395,-4.040039 0.50878,-1.310547 0.76367,-2.720703 0.76367,-4.231446 0,-2.129394 -0.64551,-3.817382 -1.9375,-5.063964 -1.29297,-1.246582 -3.08496,-1.870118 -5.37793,-1.870118 -1.65723,0 -3.22656,0.27295 -4.70996,0.818848 -1.4834,0.545899 -3.13477,1.538086 -4.9541,2.975586 l -2.40235,-3.084961 c 3.67578,-3.057129 7.67969,-4.585937 12.01172,-4.585937 3.74902,0 6.6875,0.959961 8.81738,2.879882 2.12891,1.920411 3.19434,4.5 3.19434,7.739258 0,2.530274 -0.70996,5.032715 -2.12988,7.507324 -1.41895,2.475586 -4.07715,5.605469 -7.97168,9.391602 l -8.73535,8.543945 v 0.21875 h 20.52929 z"
             id="path1158"
             style="fill:#ffffff" /><path
             class="cls-1"
             d="m 366.14711,46.112094 c 4.2041,0 7.51172,1.041992 9.92285,3.125976 2.41113,2.084473 3.61719,4.937012 3.61719,8.558106 0,4.131836 -1.31445,7.371094 -3.94434,9.71875 -2.62988,2.347656 -6.25683,3.521484 -10.8789,3.521484 -4.49512,0 -7.92676,-0.71875 -10.292,-2.15625 v -4.368164 c 1.27344,0.819336 2.85743,1.460938 4.75,1.924805 1.89258,0.463867 3.75782,0.696289 5.59668,0.696289 3.20313,0 5.69141,-0.755859 7.46582,-2.266601 1.77442,-1.509766 2.66211,-3.694336 2.66211,-6.551758 0,-5.56836 -3.41211,-8.353516 -10.2373,-8.353516 -1.72949,0 -4.04004,0.26416 -6.93457,0.791992 l -2.34766,-1.501464 1.50196,-18.672852 h 19.84668 v 4.176758 h -15.97071 l -1.00976,11.984375 c 2.09277,-0.418457 4.17675,-0.62793 6.25195,-0.62793 z"
             id="path1160"
             style="fill:#ffffff" /></g></g><g
         id="Layer_2"
         data-name="Layer 2"
         style="fill:#ffffff"><g
           id="Layer_1-2-2"
           data-name="Layer 1-2"
           style="fill:#ffffff"><g
             id="g1207"
             style="fill:#ffffff"><g
               id="g1195"
               style="fill:#ffffff"><path
                 class="cls-1"
                 d="m 139.24918,37.847659 h 7.11589 v 9.339611 c -1.15635,0.355789 -2.22373,0.622639 -3.24663,0.800533 -1.0229,0.13342 -2.04582,0.222371 -3.11321,0.222371 -2.71293,0 -4.80322,-0.800534 -6.22641,-2.401612 -1.42318,-1.601078 -2.13476,-3.869274 -2.13476,-6.893524 0,-2.890831 0.84501,-5.159027 2.49057,-6.804569 1.64555,-1.64555 3.9582,-2.446089 6.89352,-2.446089 1.82346,0 3.6469,0.355797 5.33692,1.111858 l -1.24527,3.068728 c -1.33423,-0.667114 -2.66846,-0.978439 -4.09165,-0.978439 -1.64555,0 -2.97978,0.533699 -3.9582,1.645557 -0.97844,1.111858 -1.46766,2.579506 -1.46766,4.447434 0,1.956867 0.40027,3.42453 1.20081,4.491909 0.80054,1.022903 1.95686,1.556602 3.46899,1.556602 0.80054,0 1.60108,-0.08895 2.4461,-0.266849 v -3.735844 h -3.42453 v -3.157681 h -0.0445 z"
                 id="path1165"
                 style="fill:#ffffff" /><path
                 class="cls-1"
                 d="m 156.28284,48.210174 c -2.22373,0 -3.95821,-0.622639 -5.20351,-1.823452 -1.24527,-1.200814 -1.86793,-2.935311 -1.86793,-5.203503 0,-2.312672 0.57815,-4.091644 1.73449,-5.336922 1.15634,-1.245277 2.75742,-1.867927 4.75876,-1.867927 1.95686,0 3.46899,0.533699 4.53639,1.645557 1.06739,1.111858 1.64556,2.623985 1.64556,4.580852 v 1.823452 h -8.85039 c 0.0445,1.067383 0.35579,1.912392 0.93396,2.490567 0.57815,0.578159 1.42319,0.889488 2.49057,0.889488 0.84502,0 1.60107,-0.08895 2.35713,-0.26685 0.75607,-0.177894 1.51213,-0.444744 2.31267,-0.845008 v 2.890831 c -0.66712,0.311325 -1.37871,0.578159 -2.0903,0.711593 -0.75608,0.22237 -1.69004,0.311325 -2.75742,0.311325 z M 155.74915,36.60237 c -0.80054,0 -1.42319,0.26685 -1.86794,0.756069 -0.44475,0.48922 -0.71159,1.200814 -0.75607,2.134762 h 5.24797 c 0,-0.933964 -0.26685,-1.645557 -0.7116,-2.134762 -0.48919,-0.489219 -1.11183,-0.756069 -1.91238,-0.756069 z"
                 id="path1167"
                 style="fill:#ffffff" /><path
                 class="cls-1"
                 d="m 177.36369,47.987803 h -3.73585 v -8.049858 c 0,-0.978439 -0.1779,-1.734497 -0.53369,-2.223716 -0.35579,-0.48922 -0.93395,-0.75607 -1.69002,-0.75607 -1.0674,0 -1.82344,0.35579 -2.26817,1.067383 -0.48922,0.711594 -0.71158,1.867928 -0.71158,3.468994 v 6.493256 h -3.73584 V 34.245223 h 2.84636 l 0.48921,1.778973 h 0.22237 c 0.40028,-0.667115 0.97843,-1.156334 1.73451,-1.512123 0.71158,-0.35579 1.55659,-0.48922 2.49055,-0.48922 1.60106,0 2.80188,0.444744 3.6469,1.289753 0.84502,0.845009 1.24527,2.134762 1.24527,3.735844 v 8.939357 z"
                 id="path1169"
                 style="fill:#ffffff" /><path
                 class="cls-1"
                 d="m 187.0591,48.210174 c -2.22373,0 -3.95822,-0.622639 -5.20351,-1.823452 -1.24528,-1.200814 -1.86793,-2.935311 -1.86793,-5.203503 0,-2.312672 0.57815,-4.091644 1.73451,-5.336922 1.15632,-1.245277 2.75741,-1.867927 4.75876,-1.867927 1.95688,0 3.46899,0.533699 4.53639,1.645557 1.0674,1.111858 1.64555,2.623985 1.64555,4.580852 v 1.823452 h -8.8504 c 0.0445,1.067383 0.35579,1.912392 0.93394,2.490567 0.57816,0.578159 1.42319,0.889488 2.49056,0.889488 0.84502,0 1.60106,-0.08895 2.35713,-0.26685 0.75607,-0.177894 1.51215,-0.444744 2.31267,-0.845008 v 2.890831 c -0.66712,0.311325 -1.37869,0.578159 -2.0903,0.711593 -0.75605,0.22237 -1.69002,0.311325 -2.75739,0.311325 z M 186.52539,36.60237 c -0.80054,0 -1.42319,0.26685 -1.86793,0.756069 -0.44475,0.48922 -0.71158,1.200814 -0.75608,2.134762 h 5.24797 c 0,-0.933964 -0.26683,-1.645557 -0.71158,-2.134762 -0.48921,-0.489219 -1.11186,-0.756069 -1.91238,-0.756069 z"
                 id="path1171"
                 style="fill:#ffffff" /><path
                 class="cls-1"
                 d="m 203.11432,33.933909 c 0.48921,0 0.93394,0.04448 1.24527,0.08895 l -0.26683,3.51347 c -0.31133,-0.08895 -0.66712,-0.133419 -1.11186,-0.133419 -1.20081,0 -2.13477,0.311325 -2.80188,0.933964 -0.66712,0.622638 -1.02291,1.467647 -1.02291,2.579506 v 6.982475 h -3.73585 V 34.156291 h 2.84637 l 0.53369,2.312672 h 0.17791 c 0.44474,-0.75607 1.0229,-1.378708 1.73451,-1.867928 0.75601,-0.40028 1.55658,-0.667129 2.40156,-0.667129 z"
                 id="path1173"
                 style="fill:#ffffff" /><path
                 class="cls-1"
                 d="m 214.9445,47.987803 -0.71157,-1.867927 h -0.089 c -0.62265,0.800533 -1.28977,1.334228 -1.95688,1.645557 -0.66712,0.311329 -1.5566,0.444744 -2.62399,0.444744 -1.33423,0 -2.35714,-0.355789 -3.11321,-1.111858 -0.75607,-0.756069 -1.15633,-1.823452 -1.15633,-3.20216 0,-1.467648 0.48922,-2.535042 1.51215,-3.24662 1.0229,-0.711594 2.57951,-1.067383 4.62534,-1.156334 l 2.40162,-0.08896 v -0.622639 c 0,-1.378708 -0.71158,-2.090297 -2.13476,-2.090297 -1.11187,0 -2.40163,0.311325 -3.86928,0.978439 l -1.24527,-2.535042 c 1.60106,-0.845009 3.33557,-1.245277 5.24797,-1.245277 1.82344,0 3.24663,0.400264 4.22507,1.200813 0.97844,0.800533 1.46765,2.045822 1.46765,3.6469 v 9.161717 h -2.57953 v 0.08894 z m -1.11184,-6.404304 -1.46765,0.04448 c -1.11187,0.04447 -1.91239,0.22237 -2.4461,0.578159 -0.5337,0.355789 -0.80053,0.889488 -0.80053,1.645557 0,1.067383 0.62265,1.601078 1.82344,1.601078 0.88948,0 1.55659,-0.266849 2.0903,-0.756069 0.53371,-0.48922 0.80054,-1.156334 0.80054,-2.001346 0,0 0,-1.111859 0,-1.111855 z"
                 id="path1175"
                 style="fill:#ffffff" /><path
                 class="cls-1"
                 d="m 224.68437,47.987803 h -3.73585 V 28.863837 h 3.73585 z"
                 id="path1177"
                 style="fill:#ffffff" /><path
                 class="cls-1"
                 d="m 143.42976,70.002605 -1.28975,-4.269539 h -6.53773 l -1.33423,4.269539 h -4.09164 l 6.35983,-18.056588 h 4.6698 l 6.35983,18.056588 z m -2.17924,-7.471688 c -1.20081,-3.869274 -1.86794,-6.092991 -2.04582,-6.582199 -0.13343,-0.48922 -0.26685,-0.889488 -0.31133,-1.200813 -0.26684,1.067383 -1.06738,3.6469 -2.31267,7.783008 0,0 4.66982,0 4.66982,4e-6 z"
                 id="path1179"
                 style="fill:#ffffff" /><path
                 class="cls-1"
                 d="m 159.485,65.91096 c 0,1.423187 -0.48923,2.490563 -1.46765,3.202156 -0.97844,0.756073 -2.44609,1.111863 -4.40295,1.111863 -1.02291,0 -1.86794,-0.08895 -2.57952,-0.222374 -0.71159,-0.133416 -1.37871,-0.35579 -2.00134,-0.578164 v -3.113205 c 0.71159,0.311326 1.46765,0.622635 2.35713,0.845009 0.88948,0.222374 1.64555,0.311325 2.31267,0.311325 1.37871,0 2.04582,-0.400268 2.04582,-1.200813 0,-0.311325 -0.089,-0.533699 -0.26684,-0.711593 -0.17789,-0.177895 -0.48923,-0.400269 -0.93396,-0.622635 -0.44474,-0.222367 -1.02291,-0.48922 -1.77898,-0.80053 -1.06738,-0.44474 -1.82346,-0.845009 -2.31267,-1.245277 -0.48923,-0.355789 -0.84502,-0.800534 -1.06738,-1.289753 -0.22237,-0.48922 -0.35579,-1.067383 -0.35579,-1.823452 0,-1.200814 0.48923,-2.179241 1.42319,-2.846356 0.93396,-0.667114 2.31266,-1.022903 4.04716,-1.022903 1.64555,0 3.24663,0.355789 4.8477,1.067383 l -1.11186,2.712936 c -0.66711,-0.311325 -1.33423,-0.533699 -1.91238,-0.711593 -0.57816,-0.177895 -1.20081,-0.26685 -1.82346,-0.26685 -1.11186,0 -1.64555,0.311325 -1.64555,0.889488 0,0.355789 0.1779,0.622639 0.53369,0.889488 0.35579,0.26685 1.15634,0.622639 2.35713,1.111859 1.06738,0.444744 1.86794,0.845009 2.35713,1.200813 0.48923,0.355789 0.88948,0.800533 1.11187,1.289753 0.17788,0.578148 0.26683,1.156311 0.26683,1.823425 z"
                 id="path1181"
                 style="fill:#ffffff" /><path
                 class="cls-1"
                 d="m 171.84886,65.91096 c 0,1.423187 -0.48921,2.490563 -1.46765,3.202156 -0.97844,0.756073 -2.44609,1.111863 -4.40297,1.111863 -1.0229,0 -1.86793,-0.08895 -2.57951,-0.222374 -0.7116,-0.133416 -1.37871,-0.35579 -2.00135,-0.578164 v -3.113205 c 0.7116,0.311326 1.46766,0.622635 2.35714,0.845009 0.88948,0.222374 1.64555,0.311325 2.31266,0.311325 1.3787,0 2.04581,-0.400268 2.04581,-1.200813 0,-0.311325 -0.089,-0.533699 -0.26683,-0.711593 -0.1779,-0.177895 -0.48921,-0.400269 -0.93394,-0.622635 -0.44474,-0.222367 -1.02291,-0.48922 -1.77898,-0.80053 -1.06738,-0.44474 -1.82346,-0.845009 -2.31267,-1.245277 -0.48923,-0.355789 -0.84501,-0.800534 -1.06738,-1.289753 -0.22237,-0.48922 -0.35579,-1.067383 -0.35579,-1.823452 0,-1.200814 0.48923,-2.179241 1.42319,-2.846356 0.93396,-0.667114 2.31265,-1.022903 4.04716,-1.022903 1.64556,0 3.24663,0.355789 4.84772,1.067383 l -1.11186,2.712936 c -0.66712,-0.311325 -1.33423,-0.533699 -1.91239,-0.711593 -0.57815,-0.177895 -1.2008,-0.26685 -1.82344,-0.26685 -1.11186,0 -1.64555,0.311325 -1.64555,0.889488 0,0.355789 0.1779,0.622639 0.53369,0.889488 0.35579,0.26685 1.15633,0.622639 2.35713,1.111859 1.0674,0.444744 1.86794,0.845009 2.35713,1.200813 0.48922,0.355789 0.88949,0.800533 1.11187,1.289753 0.13339,0.578148 0.26681,1.156311 0.26681,1.823425 z"
                 id="path1183"
                 style="fill:#ffffff" /><path
                 class="cls-1"
                 d="m 180.69926,70.26945 c -2.22372,0 -3.95822,-0.622635 -5.2035,-1.823448 -1.24529,-1.200813 -1.86794,-2.93531 -1.86794,-5.203503 0,-2.312671 0.57816,-4.091644 1.73452,-5.336921 1.15632,-1.245278 2.75741,-1.867928 4.75875,-1.867928 1.95688,0 3.469,0.533699 4.5364,1.645557 1.06739,1.111859 1.64555,2.623986 1.64555,4.580853 v 1.823452 h -8.8504 c 0.0445,1.067383 0.35579,1.912392 0.93394,2.490562 0.57816,0.578163 1.42319,0.889488 2.49056,0.889488 0.84501,0 1.60106,-0.08895 2.35713,-0.266845 0.75607,-0.177895 1.51214,-0.444741 2.31267,-0.845009 v 2.890831 c -0.66712,0.311325 -1.3787,0.578163 -2.09031,0.711594 -0.75604,0.222374 -1.69001,0.311325 -2.75738,0.311325 z m -0.53369,-11.607807 c -0.80053,0 -1.42318,0.266849 -1.86793,0.756069 -0.44475,0.48922 -0.71158,1.200813 -0.75608,2.134762 h 5.24798 c 0,-0.933964 -0.26683,-1.645557 -0.71158,-2.134762 -0.48921,-0.48922 -1.11187,-0.756069 -1.91239,-0.756069 z"
                 id="path1185"
                 style="fill:#ffffff" /><path
                 class="cls-1"
                 d="m 201.4243,70.002605 h -3.73585 v -8.049859 c 0,-0.978439 -0.17791,-1.734497 -0.48922,-2.223716 -0.31132,-0.48922 -0.84501,-0.756069 -1.55659,-0.756069 -0.97844,0 -1.64555,0.355789 -2.0903,1.067382 -0.44475,0.711594 -0.66712,1.867928 -0.66712,3.468991 v 6.493271 h -3.73585 v -13.74257 h 2.84637 l 0.48921,1.778973 h 0.22237 c 0.35579,-0.622639 0.88948,-1.111858 1.60106,-1.467647 0.71158,-0.35579 1.51213,-0.533699 2.40163,-0.533699 2.0458,0 3.46899,0.667114 4.1806,2.001346 h 0.31132 c 0.35579,-0.622639 0.93395,-1.156334 1.64556,-1.467647 0.71158,-0.35579 1.51214,-0.533699 2.44609,-0.533699 1.55659,0 2.75741,0.400264 3.55795,1.200813 0.80054,0.800533 1.20081,2.090298 1.20081,3.824795 v 8.939335 h -3.78032 v -8.049859 c 0,-0.978439 -0.1779,-1.734497 -0.48921,-2.223716 -0.31133,-0.48922 -0.84502,-0.756069 -1.5566,-0.756069 -0.93394,0 -1.60106,0.311325 -2.04581,0.978439 -0.44474,0.667114 -0.66711,1.690018 -0.66711,3.113205 v 6.938 z"
                 id="path1187"
                 style="fill:#ffffff" /><path
                 class="cls-1"
                 d="m 220.99301,55.993186 c 1.64556,0 2.89084,0.622639 3.82478,1.912392 0.93395,1.245277 1.3787,3.02425 1.3787,5.203502 0,2.268197 -0.48921,4.047165 -1.42319,5.292443 -0.93394,1.245277 -2.22372,1.867927 -3.86928,1.867927 -1.60106,0 -2.89084,-0.578163 -3.78032,-1.778976 h -0.26683 l -0.62265,1.512123 h -2.84637 V 50.878631 h 3.73585 v 4.447433 c 0,0.57816 -0.0445,1.467648 -0.13342,2.712937 h 0.13342 c 0.84505,-1.378708 2.1348,-2.045822 3.8693,-2.045822 z m -1.20082,2.979786 c -0.93394,0 -1.60106,0.266849 -2.04581,0.845009 -0.44474,0.578159 -0.66711,1.512123 -0.66711,2.80188 v 0.400264 c 0,1.467648 0.22237,2.535046 0.66711,3.157681 0.44475,0.622635 1.11187,0.978439 2.09031,0.978439 0.75607,0 1.37869,-0.355789 1.82344,-1.067383 0.44474,-0.711593 0.66711,-1.734497 0.66711,-3.113205 0,-1.334228 -0.22237,-2.357135 -0.66711,-3.02425 -0.44475,-0.62265 -1.0674,-0.978439 -1.86794,-0.978435 z"
                 id="path1189"
                 style="fill:#ffffff" /><path
                 class="cls-1"
                 d="m 232.73424,70.002605 h -3.73586 V 50.878638 h 3.73586 z"
                 id="path1191"
                 style="fill:#ffffff" /><path
                 class="cls-1"
                 d="m 234.51321,56.260032 h 4.09165 l 2.57951,7.738529 c 0.22237,0.667114 0.35579,1.467651 0.44475,2.401611 h 0.089 c 0.089,-0.845009 0.26683,-1.645553 0.53369,-2.401611 l 2.53505,-7.738533 h 4.00268 l -5.73722,15.521545 c -0.53369,1.423188 -1.28977,2.490563 -2.26818,3.202156 -0.97844,0.711594 -2.13476,1.067383 -3.46899,1.067383 -0.66712,0 -1.28977,-0.08895 -1.91238,-0.222374 v -2.97979 c 0.44474,0.08895 0.93394,0.177895 1.46765,0.177895 0.66711,0 1.24527,-0.222374 1.73451,-0.622635 0.48921,-0.400268 0.88948,-1.022903 1.15633,-1.823448 l 0.22236,-0.667114 -5.47034,-13.653614 z"
                 id="path1193"
                 style="fill:#ffffff" /></g><g
               id="g1205"
               style="fill:#ffffff"><path
                 class="cls-1"
                 d="m 66.800461,75.873218 c -5.915081,4.892181 -13.520195,7.827484 -21.792427,7.827484 -18.901595,0 -34.334191,-15.388123 -34.334191,-34.334183 0,-18.901594 15.388119,-34.33419 34.334191,-34.33419 8.272232,0 15.877346,2.935308 21.792427,7.827486 2.268196,-0.622639 4.669807,-0.933964 7.11589,-0.933964 2.579506,0 5.070069,0.355797 7.427224,1.022911 -3.424531,-4.714283 -7.738534,-8.716973 -12.675187,-11.7857 L 71.781593,4.4919109 62.130653,0 59.017448,6.6266742 C 54.614491,5.1590195 49.855732,4.35848 44.963554,4.35848 20.191355,4.3584857 0,24.505362 0,49.322047 0,65.421763 8.4946022,79.564601 21.258736,87.5255 l -3.113203,6.671151 9.65093,4.491912 3.113205,-6.62667 c 4.402958,1.467651 9.161717,2.268196 14.053894,2.268196 14.943382,0 28.196732,-7.338265 36.38002,-18.545807 -2.357132,0.667114 -4.847702,1.022903 -7.427223,1.022903 -2.446091,-1.5e-5 -4.847702,-0.355804 -7.115898,-0.933967 z"
                 id="path1197"
                 style="fill:#ffffff" /><path
                 class="cls-1"
                 d="m 48.654938,37.625285 c 1.378708,-2.979786 3.24662,-5.692711 5.514816,-8.005382 H 26.017494 V 68.801799 H 54.125275 C 51.857079,66.489131 49.989159,63.776202 48.610458,60.796416 H 34.022873 v -7.605114 h 12.363869 c -0.177895,-1.289753 -0.26685,-2.623985 -0.26685,-4.002689 0,-1.378704 0.08895,-2.712936 0.311318,-4.00269 H 34.067341 v -7.605114 c -0.04446,0.04448 9.606468,0.04448 14.587597,0.04448 z"
                 id="path1199"
                 style="fill:#ffffff" /><path
                 class="cls-1"
                 d="m 70.847633,53.057876 h 9.606461 v 7.293789 c -1.912392,1.111858 -4.091644,1.690017 -6.359825,1.690017 -7.071419,0 -12.808605,-5.737186 -12.808605,-12.808605 0,-7.071419 5.737186,-12.808605 12.808605,-12.808605 2.890831,0 5.648247,0.933964 7.916428,2.712936 l 4.936653,-6.315361 c -3.691368,-2.890833 -8.138802,-4.447433 -12.853081,-4.447433 -11.474373,0 -20.813988,9.339611 -20.813988,20.813987 0,11.474377 9.339607,20.813988 20.813988,20.813988 4.714279,0 9.161713,-1.512123 12.853081,-4.447433 l 1.512123,-1.200814 v -19.25737 h -17.61184 z"
                 id="path1201"
                 style="fill:#ffffff" /><path
                 class="cls-1"
                 d="m 116.61172,29.619899 v 25.617218 c 0,3.735843 -3.06872,6.804569 -6.80456,6.804569 -3.73584,0 -6.80457,-3.068726 -6.80457,-6.804569 V 29.619893 h -8.005375 v 25.617224 c 0,8.183277 6.626675,14.809952 14.809955,14.809952 8.18328,0 14.80995,-6.626675 14.80995,-14.809952 V 29.619893 h -8.00538 v 8e-6 z"
                 id="path1203"
                 style="fill:#ffffff" /></g></g></g></g></g></g><g
     inkscape:groupmode="layer"
     id="layer3"
     inkscape:label="Title"><text
       xml:space="preserve"
       transform="matrix(0.26458333,0,0,0.26458333,-80.850425,0.07413401)"
       id="text1005"
       style="font-size:133.333px;white-space:pre;shape-inside:url(#rect1007);display:inline;fill:#dce0e8"><tspan
         x="526.65039"
         y="246.92635"
         id="tspan2279"><tspan
           dx="0 0 0 0 0 0 0 0 0 0 0 0 0 0 0 0 0 0 0 -0.00010681152 0 0 0 0 0 0 0 0 0 0 0 0 0.00017547607 -0.00020599365 0.00011444092 0 0 0 0 0 0 -0.00022888184"
           style="font-weight:600;font-family:Montserrat;-inkscape-font-specification:'Montserrat Semi-Bold';fill:#ffffff"
           id="tspan2277">3D geophysical inversions to characterize 
</tspan></tspan><tspan
         x="526.65039"
         y="414.8217"
         id="tspan2283"><tspan
           dx="0 0 0 0 0 0 0 0 0 0 0 0 0 0 0 0 0 0 0 0 0 0 0 0 0 0 0 0 0 0.00017547607 -0.00021743774 0 0.00016021729 0 0 0 0 0 -0.00020599365 0.00017547607 -0.00015258789 0.00017547607 0 -0.00016784668 0.00016784668 -0.00022125244 0.00020980835"
           style="font-weight:600;font-family:Montserrat;-inkscape-font-specification:'Montserrat Semi-Bold';fill:#ffffff"
           id="tspan2281">carbon sequestration potential of ultramafic rocks</tspan></tspan></text><text
       xml:space="preserve"
       transform="matrix(0.26458333,0,0,0.26458333,-83.310398,105.63977)"
       id="text672"
       style="font-size:80px;white-space:pre;shape-inside:url(#rect674);display:inline;fill:#dce0e8"><tspan
         x="526.65039"
         y="197.90834"
         id="tspan2301"><tspan
           style="font-weight:600;font-family:Montserrat;-inkscape-font-specification:'Montserrat Semi-Bold';fill:#ffffff"
           id="tspan2285">Santiago Soler</tspan><tspan
           style="font-size:65%;baseline-shift:super"
           id="tspan2287">1</tspan><tspan
           style="font-family:Montserrat;-inkscape-font-specification:Montserrat"
           id="tspan2289">, Joseph Capriotti</tspan><tspan
           style="font-size:65%;baseline-shift:super"
           id="tspan2291">2</tspan><tspan
           style="font-family:Montserrat;-inkscape-font-specification:Montserrat"
           id="tspan2293">, Douglas Oldenburg</tspan><tspan
           style="font-size:65%;baseline-shift:super"
           id="tspan2295">1</tspan><tspan
           dx="0 0 0 0 0 0 -0.00018310547 -0.00015258789 0 0 0 0 -0.00012207031 0 0 0 0 -0.00015258789"
           style="font-family:Montserrat;-inkscape-font-specification:Montserrat"
           id="tspan2297"> and Lindsey Heagy</tspan><tspan
           dx="0.00012207031"
           style="font-size:65%;baseline-shift:super"
           id="tspan2299">1</tspan></tspan></text><path
       d="m 1370.1291,146.57937 v -5.20448 l 0.8161,0.0426 c 0.7642,0.0399 0.819,0.0664 0.8598,0.41796 l 0.043,0.37537 0.737,-0.49588 c 0.6874,-0.46259 0.7991,-0.49237 1.663,-0.44353 1.1151,0.063 1.6618,0.39727 2.2271,1.36197 0.3253,0.55501 0.3945,0.86127 0.4425,1.95747 0.07,1.60959 -0.1888,2.60279 -0.8943,3.42689 -0.7142,0.83443 -1.4816,1.09734 -2.9158,0.99905 l -1.1334,-0.0776 v 1.25572 c 0,0.69065 -0.049,1.28505 -0.1056,1.3209 -0.059,0.0359 -0.4738,0.11081 -0.9226,0.16664 l -0.8163,0.10143 z m 4.0663,0.70537 c 0.9744,-0.68248 1.0756,-3.47227 0.1492,-4.12092 -0.5348,-0.37461 -1.1734,-0.26833 -1.8025,0.29998 l -0.5682,0.51332 v 1.59419 c 0,1.51295 0.017,1.60203 0.3194,1.7482 0.4673,0.22538 1.5587,0.20543 1.9017,-0.0347 z m -129.7828,1.5677 c -4.2556,-0.80684 -7.2269,-3.21759 -8.3507,-6.77532 -0.5514,-1.74519 -0.6404,-3.43281 -0.6404,-12.12982 v -8.14689 h 3.1868 3.1869 l 0.045,8.83618 c 0.045,8.73483 0.049,8.8471 0.3656,9.78834 0.797,2.36924 2.6421,3.56978 5.4937,3.57432 3.2082,0.005 5.2267,-1.504 5.748,-4.29745 0.086,-0.45871 0.1425,-4.19241 0.1425,-9.33299 v -8.5684 h 3.1997 3.1995 l -0.045,9.33299 c -0.05,10.45759 0,9.98218 -1.1186,12.20514 -1.3067,2.61424 -3.6959,4.41203 -7.0691,5.31927 -1.3969,0.37571 -5.7767,0.49178 -7.3439,0.19463 z m 56.0916,0.10143 c -1.0562,-0.14335 -2.7944,-0.62917 -3.8589,-1.07848 -3.087,-1.30318 -5.53,-3.80624 -6.7663,-6.93295 -0.7346,-1.85792 -0.8624,-2.68117 -0.8676,-5.58608 0,-3.17689 0.2332,-4.40976 1.2644,-6.52956 1.9582,-4.02494 5.5029,-6.51877 10.2993,-7.24605 2.712,-0.41124 5.9346,-0.18711 8.3755,0.58252 1.4804,0.46682 2.8384,1.13574 2.8384,1.39825 0,0.25271 -0.8618,5.25152 -0.9142,5.30414 -0.022,0.022 -0.5107,-0.25032 -1.0861,-0.60502 -1.981,-1.22139 -3.9915,-1.8161 -6.1618,-1.82265 -4.1822,-0.0134 -6.9656,2.11453 -7.9551,6.07942 -0.5524,2.2137 -0.2364,5.37404 0.7408,7.41059 0.5201,1.08356 2.121,2.68757 3.1982,3.20438 3.0027,1.44055 7.0329,1.0728 10.7203,-0.97817 0.4862,-0.2705 0.9318,-0.49198 0.9901,-0.49217 0.1893,-5.7e-4 0.9991,4.97506 0.8316,5.10904 -0.8416,0.67327 -3.7886,1.72856 -5.7473,2.05805 -1.2402,0.2086 -4.7386,0.28255 -5.9013,0.12474 z m 30.0218,-1.31913 -0.4931,-1.41948 h -1.9948 -1.9947 l -0.429,1.31302 -0.4291,1.31301 -1.1028,0.0417 c -1.0718,0.0404 -1.1001,0.033 -1.0061,-0.26332 0.054,-0.16774 0.9459,-2.54989 1.9835,-5.29369 l 1.887,-4.9887 h 1.1783 1.1784 l 1.9426,5.14768 c 1.0685,2.83122 1.9024,5.17252 1.8532,5.20286 -0.1022,0.0634 -1.6968,0.36643 -1.9273,0.36643 -0.084,0 -0.375,-0.63876 -0.6461,-1.41948 z m -1.1357,-3.17679 c 0,-0.0873 -1.2891,-3.69554 -1.3376,-3.74407 -0.038,-0.0392 -1.3593,3.59194 -1.3593,3.73918 0,0.0324 0.6067,0.0588 1.3484,0.0588 0.7417,0 1.3485,-0.0243 1.3485,-0.054 z m 6.7098,4.3858 c -0.8986,-0.39061 -1.0307,-0.84137 -1.0314,-3.51564 v -2.37762 h -0.5678 -0.5677 v -0.78071 -0.78069 h 0.5677 0.5678 v -1.19527 c 0,-1.34153 -0.1392,-1.19038 1.3131,-1.42762 l 0.5323,-0.087 v 1.35492 1.35493 h 0.7742 0.7742 l 0.085,0.5323 c 0.047,0.29276 0.1073,0.64407 0.1358,0.78069 0.044,0.21593 -0.069,0.24842 -0.8594,0.24842 h -0.9093 v 1.88469 c 0,2.23249 0.099,2.47546 1.0304,2.54311 l 0.5998,0.0436 0.099,0.70072 c 0.055,0.38539 0.067,0.75266 0.029,0.81619 -0.119,0.19134 -2.0794,0.11886 -2.5714,-0.0949 z m 19.2813,-0.16363 c -1.3633,-0.67938 -1.9454,-1.90706 -1.8321,-3.86446 0.1258,-2.16924 1.2898,-3.43444 3.2627,-3.54591 1.2625,-0.0714 2.0362,0.21572 2.7923,1.03593 1.7355,1.88284 1.1561,5.48172 -1.044,6.48367 -0.8817,0.40153 -2.2482,0.35459 -3.1789,-0.10931 z m 2.4991,-1.46633 c 1.1838,-0.72176 1.0876,-3.57781 -0.1425,-4.21362 -0.5028,-0.26 -1.2846,-0.17852 -1.6747,0.17453 -0.4609,0.4171 -0.7452,1.39982 -0.6557,2.26686 0.177,1.71538 1.275,2.50236 2.4724,1.77223 z m 5.577,1.63943 c -1.4586,-0.45187 -1.3223,-0.31808 -1.219,-1.19677 0.05,-0.43335 0.1123,-0.80806 0.1374,-0.83271 0.025,-0.0246 0.4096,0.12222 0.8554,0.32633 0.446,0.20411 1.1848,0.40503 1.6418,0.44649 0.7622,0.0691 0.863,0.0438 1.2113,-0.30464 0.3483,-0.34827 0.3628,-0.40613 0.1746,-0.69285 -0.1342,-0.20371 -0.6458,-0.46287 -1.468,-0.74287 -2.1232,-0.72317 -2.4694,-1.04867 -2.4685,-2.3216 0,-1.02631 0.3348,-1.58186 1.2046,-2.00293 0.5901,-0.28564 0.8117,-0.31339 1.9657,-0.24606 0.7152,0.0417 1.5131,0.15391 1.7728,0.24928 0.4716,0.17319 0.4721,0.17436 0.374,0.90096 -0.054,0.40014 -0.1241,0.7713 -0.1559,0.82482 -0.032,0.0535 -0.3303,-0.0235 -0.6639,-0.17106 -1.2313,-0.5446 -2.3636,-0.53768 -2.66,0.0168 -0.246,0.45961 0.1224,0.7336 1.6017,1.19189 1.0241,0.31716 1.4333,0.5238 1.8476,0.93282 0.4971,0.49054 0.5323,0.58162 0.5323,1.37278 0,0.98807 -0.3444,1.62426 -1.127,2.08129 -0.6257,0.36541 -2.6172,0.45979 -3.5573,0.16856 z m 26.1182,-0.0949 c -1.3305,-0.60316 -1.8628,-1.47203 -1.9573,-3.19484 -0.1576,-2.86738 1.2643,-4.47253 3.7995,-4.28915 1.6484,0.11921 2.6702,1.29545 2.8089,3.23351 l 0.07,0.99061 -2.3964,0.0391 -2.3965,0.0391 0.05,0.35487 c 0.2232,1.5735 1.7148,2.05745 3.6093,1.17093 l 0.921,-0.43104 0.096,0.72301 c 0.086,0.6463 0.062,0.74889 -0.2275,0.96696 -0.9451,0.71288 -3.2255,0.91973 -4.3781,0.39715 z m 2.8359,-4.56586 c 0,-0.0976 -0.1224,-0.44188 -0.2701,-0.76508 -0.2003,-0.44152 -0.3888,-0.62793 -0.7571,-0.7495 -0.8517,-0.28107 -1.4921,0.16229 -1.8036,1.24877 l -0.1275,0.44326 h 1.4806 c 1.0914,0 1.4797,-0.0466 1.4774,-0.17745 z m 15.945,4.52306 c -0.849,-0.40359 -1.474,-1.16913 -1.7453,-2.13803 -0.2392,-0.85443 -0.1274,-2.69322 0.2026,-3.34317 0.4153,-0.81686 1.2064,-1.53579 1.9691,-1.7891 0.8687,-0.28853 2.5074,-0.21417 3.1998,0.14519 l 0.4761,0.24717 -0.099,0.80482 c -0.055,0.44266 -0.1224,0.82811 -0.1492,0.85656 -0.027,0.0285 -0.3288,-0.0833 -0.6698,-0.24839 -1.7286,-0.83686 -3.1057,0.005 -3.1057,1.90002 0,0.95047 0.3485,1.71657 0.9138,2.00892 0.6064,0.31356 1.953,0.20199 2.5073,-0.20774 l 0.4191,-0.30985 0.077,0.46089 c 0.2036,1.22919 0.1866,1.29397 -0.4186,1.59445 -0.3883,0.19277 -0.9268,0.29559 -1.7033,0.32519 -0.9689,0.0369 -1.2437,-0.008 -1.8724,-0.30694 z m 11.3398,0.12507 c -1.3127,-0.36686 -1.3495,-0.40587 -1.2363,-1.31207 0.1492,-1.18716 0.1408,-1.18097 0.8976,-0.81706 1.4511,0.69844 2.9003,0.78869 3.5977,0.22405 0.3864,-0.31298 0.452,-1.24099 0.1174,-1.64959 -0.1157,-0.1405 -0.8752,-0.56749 -1.6885,-0.94896 -1.7124,-0.80323 -2.0936,-1.07243 -2.5305,-1.7877 -0.2381,-0.38948 -0.3189,-0.74051 -0.3194,-1.38636 0,-1.16684 0.4253,-1.97074 1.3479,-2.54189 0.658,-0.40731 0.7563,-0.4256 2.2601,-0.4205 1.1674,0.003 1.714,0.0681 2.1229,0.24881 l 0.5505,0.24347 -0.1005,0.88182 c -0.055,0.48501 -0.1291,0.92971 -0.166,0.9882 -0.037,0.0585 -0.303,-0.0168 -0.5928,-0.16564 -1.6459,-0.84984 -3.1177,-0.68657 -3.3843,0.37541 -0.1683,0.67092 0.2709,1.05424 2.2707,1.98182 1.9198,0.89046 2.5029,1.61395 2.5029,3.10598 0,1.32668 -0.5244,2.22897 -1.6324,2.80884 -0.7424,0.3885 -2.9098,0.48101 -4.0175,0.17146 z m 9.2426,-0.12507 c -0.8492,-0.40359 -1.4741,-1.16913 -1.7453,-2.13803 -0.2393,-0.85443 -0.1274,-2.69322 0.2025,-3.34317 0.4151,-0.81686 1.2064,-1.53579 1.9691,-1.7891 0.8686,-0.28853 2.5073,-0.21417 3.1997,0.14519 l 0.4763,0.24717 -0.099,0.80482 c -0.055,0.44266 -0.1224,0.82811 -0.1493,0.85656 -0.027,0.0285 -0.3289,-0.0833 -0.6699,-0.24839 -1.7287,-0.83686 -3.1056,0.005 -3.1056,1.90002 0,0.95047 0.3484,1.71657 0.9139,2.00892 0.6064,0.31356 1.953,0.20199 2.5071,-0.20774 l 0.4191,-0.30985 0.077,0.46089 c 0.2037,1.22919 0.1868,1.29397 -0.4186,1.59445 -0.3881,0.19277 -0.9268,0.29559 -1.7032,0.32519 -0.9691,0.0369 -1.2438,-0.008 -1.8724,-0.30694 z m 12.1634,0.0428 c -1.3305,-0.60316 -1.8628,-1.47203 -1.9574,-3.19484 -0.1576,-2.86738 1.2643,-4.47253 3.7996,-4.28915 1.6483,0.1192 2.6702,1.29545 2.8088,3.2335 l 0.071,0.99062 -2.3965,0.0391 -2.3964,0.0391 0.05,0.35487 c 0.2231,1.5735 1.7147,2.05745 3.6092,1.17093 l 0.9211,-0.43104 0.096,0.72301 c 0.085,0.6463 0.062,0.74889 -0.2275,0.96696 -0.9451,0.71288 -3.2255,0.91973 -4.3781,0.39715 z m 2.8359,-4.56586 c 0,-0.0976 -0.1241,-0.44188 -0.2701,-0.76509 -0.2004,-0.44151 -0.3888,-0.62793 -0.7572,-0.74949 -0.8516,-0.28107 -1.4921,0.16229 -1.8036,1.24877 l -0.1274,0.44326 h 1.4806 c 1.0914,0 1.4797,-0.0466 1.4773,-0.17745 z m 14.2416,4.52306 c -0.849,-0.40359 -1.474,-1.16913 -1.7453,-2.13804 -0.2392,-0.85443 -0.1274,-2.69322 0.2026,-3.34316 0.4153,-0.81686 1.2064,-1.53579 1.9691,-1.7891 0.8687,-0.28853 2.5072,-0.21418 3.1998,0.14519 l 0.4761,0.24717 -0.099,0.80482 c -0.055,0.44266 -0.1224,0.82811 -0.1492,0.85656 -0.027,0.0285 -0.3288,-0.0833 -0.6698,-0.24839 -1.7286,-0.83686 -3.1057,0.005 -3.1057,1.90001 0,0.95048 0.3485,1.71658 0.9138,2.00893 0.6064,0.31356 1.953,0.20199 2.5073,-0.20774 l 0.4191,-0.30986 0.075,0.4609 c 0.2037,1.22919 0.1867,1.29397 -0.4185,1.59445 -0.3883,0.19277 -0.9268,0.29559 -1.7034,0.32518 -0.9688,0.0369 -1.2436,-0.008 -1.8723,-0.30694 z m 7.6212,0.0427 c -1.3305,-0.60317 -1.8628,-1.47203 -1.9573,-3.19484 -0.1576,-2.86738 1.2642,-4.47253 3.7995,-4.28915 1.6484,0.1192 2.6702,1.29544 2.8089,3.2335 l 0.07,0.99062 -2.3965,0.0391 -2.3964,0.0391 0.05,0.35487 c 0.2231,1.5735 1.7148,2.05744 3.6092,1.17093 l 0.9211,-0.43104 0.096,0.72301 c 0.085,0.6463 0.062,0.74889 -0.2275,0.96695 -0.9451,0.71288 -3.2255,0.91973 -4.3781,0.39716 z m 2.8359,-4.56586 c 0,-0.0976 -0.1224,-0.44189 -0.2701,-0.76509 -0.2004,-0.44151 -0.3888,-0.62793 -0.7571,-0.74949 -0.8517,-0.28107 -1.4922,0.16229 -1.8037,1.24876 l -0.1274,0.44326 h 1.4806 c 1.0914,0 1.4797,-0.0466 1.4773,-0.17744 z m 4.8292,4.66074 c -1.4585,-0.45188 -1.3222,-0.31809 -1.2191,-1.19678 0.052,-0.43335 0.1123,-0.80806 0.1374,-0.8327 0.025,-0.0246 0.4098,0.12221 0.8556,0.32632 0.4458,0.20411 1.1846,0.40503 1.6418,0.44649 0.7622,0.0691 0.8628,0.0438 1.2111,-0.30464 0.3484,-0.34827 0.363,-0.40613 0.1747,-0.69285 -0.1341,-0.20371 -0.6458,-0.46287 -1.4679,-0.74287 -2.1234,-0.72317 -2.4694,-1.04867 -2.4686,-2.3216 0,-1.02631 0.3348,-1.58186 1.2046,-2.00292 0.5902,-0.28565 0.8118,-0.3134 1.9656,-0.24607 0.7154,0.0418 1.5131,0.15391 1.7729,0.24928 0.4715,0.17319 0.472,0.17436 0.3741,0.90096 -0.054,0.40014 -0.1241,0.77131 -0.156,0.82482 -0.032,0.0535 -0.3304,-0.0235 -0.664,-0.17106 -1.2311,-0.5446 -2.3634,-0.53768 -2.66,0.0168 -0.246,0.45961 0.1224,0.73361 1.6019,1.19189 1.0239,0.31716 1.4331,0.5238 1.8475,0.93282 0.497,0.49054 0.5323,0.58163 0.5323,1.37278 0,0.98807 -0.3445,1.62426 -1.1269,2.08129 -0.6257,0.36542 -2.6173,0.45979 -3.5573,0.16856 z m -132.7201,-3.70968 v -3.76866 l 0.8162,0.0426 c 0.7725,0.0402 0.8184,0.0634 0.861,0.43291 0.025,0.2147 0.07,0.39037 0.1023,0.39037 0.032,0 0.3442,-0.20214 0.6946,-0.44918 1.1067,-0.77996 2.6833,-0.71536 3.3542,0.13747 l 0.2829,0.35957 0.3866,-0.28582 c 1.107,-0.81846 2.3869,-1.00627 3.254,-0.47749 0.8359,0.5097 0.8941,0.78645 0.8941,4.25709 v 3.12989 h -0.9226 -0.9226 v -2.59054 c 0,-2.98108 -0.079,-3.27644 -0.8579,-3.34247 -0.3737,-0.0317 -0.648,0.0662 -1.0968,0.39123 l -0.5983,0.43347 v 2.55415 2.55416 h -0.9226 -0.9228 v -2.59054 c 0,-1.79758 -0.057,-2.69914 -0.1809,-2.94539 -0.3021,-0.59912 -1.1684,-0.56172 -1.9352,0.0835 l -0.4368,0.36752 v 2.54243 2.54242 h -0.9227 -0.9226 v -3.76867 z m 38.3593,-1.65155 0.037,-5.42021 0.7097,-0.18393 c 0.3905,-0.10126 0.7896,-0.18517 0.8872,-0.18668 0.1341,-0.002 0.1774,0.54407 0.1774,2.26548 v 2.26822 l 0.6411,-0.45182 c 0.518,-0.3652 0.8131,-0.46278 1.5392,-0.509 1.0658,-0.0679 1.6662,0.18187 2.084,0.8671 0.2528,0.41469 0.2771,0.73069 0.2776,3.61275 v 3.15831 h -0.9142 -0.9142 l -0.044,-2.77966 c -0.04,-2.58648 -0.064,-2.79438 -0.328,-2.99168 -0.3975,-0.29698 -1.248,-0.15877 -1.8505,0.30082 l -0.4916,0.37489 v 2.54782 2.54781 h -0.9243 -0.9242 l 0.037,-5.42022 z m 17.2838,1.65155 v -3.76866 l 0.8161,0.0426 c 0.792,0.0412 0.8175,0.0552 0.8579,0.4684 0.075,0.78184 0.1475,0.81822 0.5962,0.30662 0.4563,-0.51969 1.2103,-0.94538 1.6745,-0.94538 0.2151,0 0.3038,0.12641 0.3737,0.5323 0.05,0.29278 0.1257,0.70232 0.166,0.91011 0.07,0.35243 0.023,0.3926 -0.6829,0.59804 -0.4263,0.12389 -1.0196,0.4446 -1.357,0.73333 l -0.5995,0.51312 v 2.18912 2.18911 h -0.9228 -0.9226 z m 6.1037,0.007 v -3.76156 h 0.9226 0.9226 v 3.76157 3.7616 h -0.9226 -0.9226 z m 32.6477,0 v -3.76156 h 0.9226 0.9226 v 3.76157 3.7616 h -0.9226 -0.9226 z m 12.7752,-0.007 v -3.76866 l 0.8162,0.0426 c 0.7727,0.0402 0.8186,0.0634 0.861,0.43291 0.045,0.39635 0.2203,0.50848 0.3826,0.24571 0.049,-0.0796 0.4022,-0.30311 0.7845,-0.4968 1.2696,-0.64339 2.6858,-0.40837 3.2652,0.54189 0.2528,0.41469 0.2771,0.73068 0.2776,3.61275 v 3.15831 h -0.9142 -0.9142 l -0.044,-2.77967 c -0.04,-2.58647 -0.064,-2.79438 -0.3279,-2.99168 -0.3975,-0.29698 -1.248,-0.15876 -1.8506,0.30083 l -0.4915,0.37489 v 2.54781 2.54782 h -0.9226 -0.9226 v -3.76867 z m -182.6855,-9.92918 v -13.41396 h 5.1493 c 6.601,0 8.1016,0.17766 10.2756,1.21653 2.5906,1.23795 3.8862,3.47084 3.7008,6.37762 -0.1224,1.90817 -1.124,3.55691 -2.7537,4.53106 l -0.6938,0.41461 1.0784,0.53969 c 1.307,0.65423 2.5289,1.86842 3.0818,3.0625 0.3184,0.68771 0.3889,1.06518 0.4352,2.3307 0.062,1.70683 -0.092,2.62167 -0.6381,3.78771 -0.5341,1.14032 -1.9689,2.51182 -3.3153,3.16924 -2.466,1.20417 -3.9639,1.39636 -10.8907,1.39743 l -5.4295,8.4e-4 z m 11.8527,8.44753 c 1.045,-0.40212 1.9632,-1.26875 2.183,-2.06039 0.4239,-1.52706 -0.062,-3.03215 -1.2178,-3.76467 -1.1169,-0.70848 -1.8799,-0.87629 -4.3365,-0.95363 l -2.2358,-0.0704 v 3.65299 3.65297 l 2.3778,-0.0645 c 2.0448,-0.0555 2.4967,-0.11048 3.2293,-0.39231 z m -0.9937,-11.42723 c 0.8611,-0.29516 1.5651,-0.80625 1.9244,-1.39698 0.6352,-1.04478 0.46,-2.60307 -0.385,-3.42384 -0.743,-0.72163 -1.6586,-0.95529 -4.0589,-1.03593 l -2.0939,-0.0704 v 3.16024 3.16025 l 1.9519,-0.0751 c 1.2968,-0.0498 2.1899,-0.15675 2.6615,-0.31834 z m 126.5455,7.73491 c -0.6847,-0.68471 -0.1274,-1.84529 0.886,-1.84529 0.9587,0 1.4581,1.17669 0.7727,1.82055 -0.4293,0.40334 -1.2676,0.41583 -1.6587,0.0248 z m 32.6478,0 c -0.6848,-0.68471 -0.1274,-1.84529 0.8859,-1.84529 0.9587,0 1.4581,1.17669 0.7727,1.82055 -0.4293,0.40334 -1.2676,0.41583 -1.6586,0.0248 z m -73.364,-5.19833 c -0.3655,-0.15944 -0.4497,-0.26278 -0.3672,-0.44975 0.059,-0.13345 0.2648,-0.68983 0.4572,-1.23633 0.3057,-0.86761 0.3333,-1.09714 0.2178,-1.80982 l -0.1324,-0.81619 h 1.0366 1.0364 v 1.02911 c 0,1.17859 -0.2842,1.93506 -1.0763,2.90175 -0.5582,0.68113 -0.5147,0.66696 -1.1693,0.38123 z m -29.0792,-2.17715 c -0.25,-0.1524 -0.5603,-0.48177 -0.6897,-0.73196 -0.3261,-0.6308 -0.2257,-1.91056 0.1966,-2.50359 0.442,-0.62069 1.5948,-1.14108 2.9729,-1.34193 1.3104,-0.19101 1.4691,-0.39255 0.82,-1.04162 -0.2839,-0.28389 -0.4876,-0.34754 -1.1,-0.34377 -0.4134,0.003 -1.1022,0.12557 -1.5305,0.27344 -0.87,0.3003 -0.9754,0.24561 -1.0147,-0.52648 -0.017,-0.25373 -0.03,-0.54083 -0.038,-0.63801 -0.024,-0.28405 1.5825,-0.65128 2.9011,-0.66364 0.9894,-0.0101 1.3281,0.0473 1.8453,0.30802 1.0571,0.53307 1.1297,0.81117 1.1298,4.32938 v 3.01636 h -0.8516 c -0.8469,0 -0.8517,-0.002 -0.8517,-0.41548 v -0.41548 l -0.8078,0.48645 c -0.684,0.41187 -0.9397,0.48638 -1.6678,0.48593 -0.6025,-4.2e-4 -0.9962,-0.0835 -1.3146,-0.27762 z m 2.6184,-1.35966 c 0.8681,-0.36266 1.0299,-0.58823 1.0299,-1.43605 0,-0.86407 0,-0.86695 -1.1454,-0.53196 -1.1397,0.33517 -1.6391,0.86542 -1.466,1.556 0.1509,0.60032 0.7545,0.75761 1.5815,0.41201 z m 13.1337,1.42736 c -0.8987,-0.39062 -1.0309,-0.84137 -1.0314,-3.51565 v -2.37761 h -0.5679 -0.5678 v -0.7807 -0.78071 h 0.5678 0.5679 v -1.19527 c 0,-1.34153 -0.1392,-1.19037 1.3129,-1.4276 l 0.5323,-0.087 v 1.35492 1.35493 h 0.7744 0.7742 l 0.085,0.5323 c 0.047,0.29275 0.1073,0.64407 0.1358,0.78071 0.044,0.2159 -0.069,0.2484 -0.8596,0.2484 h -0.9093 v 1.88469 c 0,2.23249 0.099,2.47546 1.0305,2.5431 l 0.5997,0.0436 0.099,0.70073 c 0.055,0.38538 0.067,0.75268 0.029,0.81619 -0.119,0.19134 -2.0794,0.11886 -2.5713,-0.0949 z m 24.9222,0.0206 c -1.6367,-0.60968 -2.6106,-1.62822 -3.1172,-3.26013 -0.452,-1.45578 -0.3484,-3.37555 0.2511,-4.65353 0.8552,-1.82326 2.1621,-2.69416 4.1984,-2.79777 3.4374,-0.17489 5.4892,2.04529 5.3369,5.7752 -0.047,1.15923 -0.1223,1.50523 -0.4942,2.29976 -0.5191,1.10659 -1.2029,1.83279 -2.2187,2.35633 -0.6203,0.31977 -0.9592,0.38908 -2.089,0.42755 -0.8943,0.0305 -1.5233,-0.0193 -1.8673,-0.14736 z m 3.003,-1.92225 c 1.4494,-0.74303 2.0031,-3.47179 1.1033,-5.43726 -0.4047,-0.88399 -0.906,-1.30371 -1.8368,-1.5381 -1.2889,-0.32457 -2.4843,0.27719 -3.0818,1.55146 -0.3154,0.67216 -0.3722,0.98901 -0.3722,2.07108 0,1.08207 0.057,1.39893 0.3722,2.07107 0.7174,1.52979 2.2965,2.0603 3.8153,1.28175 z m 7.425,1.7735 c -0.849,-0.40359 -1.4738,-1.16913 -1.7451,-2.13802 -0.2392,-0.85444 -0.1274,-2.69323 0.2024,-3.34316 0.4153,-0.81687 1.2066,-1.53581 1.9692,-1.78911 0.8687,-0.28854 2.5073,-0.21418 3.1997,0.14518 l 0.4763,0.24718 -0.099,0.80482 c -0.055,0.44265 -0.1224,0.8281 -0.1492,0.85656 -0.027,0.0285 -0.3289,-0.0833 -0.67,-0.2484 -1.7286,-0.83686 -3.1056,0.005 -3.1056,1.90004 0,0.95046 0.3484,1.71655 0.9139,2.0089 0.6062,0.31357 1.953,0.20199 2.5071,-0.20774 l 0.4191,-0.30984 0.077,0.46088 c 0.2037,1.22919 0.1866,1.29397 -0.4187,1.59446 -0.3881,0.19276 -0.9268,0.29559 -1.7033,0.32518 -0.9689,0.0369 -1.2437,-0.008 -1.8724,-0.30694 z m 7.7632,0.0427 c -1.3305,-0.60316 -1.8628,-1.47201 -1.9573,-3.19484 -0.1576,-2.86738 1.2643,-4.47252 3.7993,-4.28914 1.6486,0.1192 2.6704,1.29544 2.8091,3.2335 l 0.07,0.99061 -2.3964,0.0391 -2.3965,0.0391 0.05,0.35486 c 0.2232,1.57349 1.7148,2.05744 3.6093,1.17092 l 0.921,-0.43103 0.096,0.723 c 0.085,0.64631 0.062,0.74889 -0.2275,0.96696 -0.9451,0.71288 -3.2255,0.91973 -4.3781,0.39716 z m 2.8359,-4.56584 c 0,-0.0976 -0.1224,-0.44188 -0.2701,-0.7651 -0.2003,-0.44152 -0.3888,-0.62792 -0.7571,-0.74948 -0.8517,-0.28109 -1.4921,0.16229 -1.8036,1.24875 l -0.1275,0.44326 h 1.4806 c 1.0914,0 1.4797,-0.0466 1.4774,-0.17743 z m 4.3038,4.58352 c -0.2499,-0.1524 -0.5603,-0.48177 -0.6897,-0.73196 -0.3261,-0.6308 -0.2257,-1.91057 0.1967,-2.50359 0.4419,-0.62069 1.5947,-1.14109 2.9728,-1.34193 1.3104,-0.19101 1.4691,-0.39255 0.82,-1.04162 -0.2839,-0.28389 -0.4875,-0.34755 -1.1,-0.34377 -0.4134,0.003 -1.1021,0.12557 -1.5305,0.27344 -0.87,0.3003 -0.9754,0.24561 -1.0146,-0.52648 -0.017,-0.25373 -0.03,-0.54084 -0.039,-0.63801 -0.024,-0.28405 1.5825,-0.65128 2.9011,-0.66364 0.9895,-0.0101 1.3281,0.0473 1.8453,0.30801 1.0571,0.53308 1.1297,0.81118 1.13,4.32939 v 3.01636 h -0.8517 c -0.8469,0 -0.8518,-0.002 -0.8518,-0.41548 v -0.41548 l -0.8078,0.48645 c -0.684,0.41187 -0.9397,0.48638 -1.6678,0.48592 -0.6025,-4.2e-4 -0.9962,-0.0835 -1.3145,-0.27761 z m 2.6184,-1.35966 c 0.8682,-0.36267 1.0299,-0.58823 1.0299,-1.43605 0,-0.86407 0,-0.86696 -1.1454,-0.53197 -1.1397,0.33518 -1.6391,0.86543 -1.4659,1.55601 0.1509,0.60032 0.7544,0.75761 1.5814,0.41201 z m 18.6736,1.35966 c -0.2499,-0.1524 -0.5603,-0.48177 -0.6897,-0.73196 -0.3261,-0.6308 -0.2257,-1.91057 0.1967,-2.50359 0.4419,-0.62069 1.5947,-1.14109 2.9728,-1.34193 1.3104,-0.19101 1.4691,-0.39255 0.82,-1.04162 -0.2838,-0.28389 -0.4875,-0.34755 -1.1,-0.34377 -0.4134,0.003 -1.1021,0.12557 -1.5305,0.27344 -0.8699,0.3003 -0.9754,0.24561 -1.0146,-0.52648 -0.017,-0.25373 -0.03,-0.54084 -0.039,-0.63801 -0.024,-0.28405 1.5825,-0.65128 2.9011,-0.66364 0.9895,-0.0101 1.3281,0.0473 1.8454,0.30801 1.057,0.53308 1.1296,0.81118 1.1299,4.32939 v 3.01636 h -0.8516 c -0.847,0 -0.8517,-0.002 -0.8517,-0.41548 v -0.41548 l -0.8079,0.48645 c -0.6841,0.41187 -0.9397,0.48638 -1.6679,0.48592 -0.6025,-4.2e-4 -0.9962,-0.0835 -1.3145,-0.27761 z m 2.6185,-1.35966 c 0.8681,-0.36267 1.0298,-0.58823 1.0298,-1.43605 0,-0.86407 0,-0.86696 -1.1454,-0.53197 -1.1397,0.33518 -1.6391,0.86543 -1.4659,1.55601 0.1509,0.60032 0.7544,0.75761 1.5815,0.41201 z m 15.2499,1.39909 c -1.0289,-0.50702 -1.5713,-1.67055 -1.5806,-3.39065 -0.017,-1.45027 0.2923,-2.47468 0.9334,-3.18424 0.7176,-0.79426 1.4964,-1.05191 2.8907,-0.95635 l 1.129,0.0775 0.04,-1.64511 0.04,-1.64511 0.7097,-0.18374 c 0.3904,-0.1011 0.7896,-0.18496 0.8872,-0.18647 0.1391,-0.002 0.1774,1.21182 0.1774,5.60416 v 5.60689 h -0.7806 c -0.7332,0 -0.7808,-0.0211 -0.7808,-0.34649 0,-0.43949 -0.198,-0.56684 -0.4357,-0.28033 -0.5967,0.71883 -2.2843,0.99582 -3.2294,0.53005 z m 2.9079,-2.05515 0.4733,-0.45882 v -1.58174 c 0,-1.55725 0,-1.58431 -0.3614,-1.7465 -0.5783,-0.26345 -1.5379,-0.20377 -1.9512,0.12138 -0.9699,0.76282 -0.9194,3.69666 0.07,4.11409 0.5432,0.22904 1.2561,0.0483 1.7686,-0.44841 z m -117.0586,-3.17108 v -5.323 h 3.1229 3.1229 v 0.84789 0.84789 l -2.0938,0.0392 -2.0937,0.0392 v 1.20653 1.20656 l 1.6303,0.0709 1.6304,0.0709 0.1006,0.56777 c 0.2015,1.14028 0.3197,1.0646 -1.6626,1.0646 h -1.7793 l 0.04,1.45497 0.04,1.45495 2.1647,0.0392 2.1646,0.0392 v 0.84799 0.84797 h -3.1938 -3.1938 z m 16.8918,1.55433 v -3.76867 l 0.8162,0.0426 c 0.792,0.0412 0.8174,0.0552 0.8577,0.46841 0.075,0.78185 0.1475,0.81822 0.5963,0.30662 0.4562,-0.51969 1.2103,-0.94538 1.6744,-0.94538 0.2151,0 0.3039,0.12641 0.3738,0.5323 0.05,0.29277 0.1258,0.70232 0.166,0.91011 0.07,0.35242 0.024,0.39259 -0.683,0.59803 -0.4262,0.1239 -1.0197,0.44461 -1.357,0.73334 l -0.5995,0.51312 v 2.18912 2.1891 h -0.9226 -0.9226 z m 12.5251,-1.65154 0.037,-5.42022 0.7096,-0.18393 c 0.3903,-0.1011 0.7897,-0.18518 0.8873,-0.18669 0.1341,-0.002 0.1773,0.54407 0.1773,2.26549 v 2.26822 l 0.641,-0.45183 c 0.5182,-0.3652 0.8133,-0.46277 1.5392,-0.50899 1.066,-0.0679 1.6662,0.18187 2.0839,0.8671 0.2529,0.41469 0.2772,0.73068 0.2777,3.61275 v 3.15831 h -0.9142 -0.9142 l -0.044,-2.77965 c -0.04,-2.58649 -0.064,-2.7944 -0.3278,-2.99169 -0.3977,-0.29698 -1.2482,-0.15877 -1.8506,0.30082 l -0.4915,0.37489 v 2.54781 2.54782 h -0.9243 -0.9244 l 0.037,-5.42021 z m 53.4801,1.65154 v -3.76867 l 0.8162,0.0426 c 0.7725,0.0402 0.8185,0.0634 0.861,0.43293 0.045,0.39634 0.2202,0.50846 0.3826,0.2457 0.049,-0.0796 0.4022,-0.30312 0.7845,-0.49681 1.2696,-0.64338 2.6856,-0.40837 3.265,0.54189 0.253,0.41469 0.2772,0.73069 0.2777,3.61275 v 3.15831 h -0.9142 -0.9143 l -0.043,-2.77964 c -0.04,-2.5865 -0.064,-2.7944 -0.3278,-2.9917 -0.3977,-0.29698 -1.2482,-0.15877 -1.8506,0.30082 l -0.4915,0.37489 v 2.54782 2.54781 h -0.9226 -0.9228 v -3.76867 z m 21.15,0 v -3.76867 l 0.8162,0.0426 c 0.7727,0.0402 0.8186,0.0634 0.8611,0.43293 0.045,0.39634 0.2202,0.50846 0.3825,0.2457 0.049,-0.0796 0.4022,-0.30312 0.7845,-0.49681 1.2696,-0.64338 2.6858,-0.40837 3.2652,0.54189 0.2528,0.41469 0.2771,0.73069 0.2776,3.61275 v 3.15831 h -0.9142 -0.9142 l -0.044,-2.77964 c -0.04,-2.5865 -0.064,-2.7944 -0.3279,-2.9917 -0.3975,-0.29698 -1.248,-0.15877 -1.8506,0.30082 l -0.4915,0.37489 v 2.54782 2.54781 h -0.9226 -0.9226 v -3.76867 z"
       style="fill:#ffffff;fill-opacity:1;stroke-width:0.141947"
       id="path696" /></g><g
     inkscape:groupmode="layer"
     id="layer5"
     inkscape:label="Abstract"><rect
       style="display:inline;fill:#ffffff;stroke-width:0.308789"
       id="rect1259"
       width="470"
       height="438.29404"
       x="29.999998"
       y="207.93042" /><text
       xml:space="preserve"
       transform="matrix(0.26458333,0,0,0.26458333,38.319904,19.418772)"
       id="text1848"
       style="font-style:normal;font-variant:normal;font-weight:normal;font-stretch:normal;font-size:66.6667px;font-family:Montserrat;-inkscape-font-specification:Montserrat;white-space:pre;shape-inside:url(#rect1850);display:inline;fill:#ffffff"><tspan
         x="113.38672"
         y="827.15184"
         id="tspan2305"><tspan
           style="fill:#4c4f69"
           id="tspan2303">Abstract</tspan></tspan></text><rect
       style="display:inline;fill:#ffffff;stroke-width:0.308789"
       id="rect1924"
       width="470"
       height="438.29404"
       x="515"
       y="207.93042" /><rect
       style="display:inline;fill:#ffffff;stroke-width:0.308789"
       id="rect1926"
       width="470"
       height="438.29404"
       x="999.42999"
       y="207.93042" /></g></svg>
