<?xml version="1.0" encoding="UTF-8"?>
<svg id="Layer_1" data-name="Layer 1" xmlns="http://www.w3.org/2000/svg" version="1.1" viewBox="0 0 379.687149 98.6885633">
  <defs>
    <style>
      .cls-1 {
        fill: #0072bc;
        stroke-width: 0px;
      }
    </style>
  </defs>
  <g id="Layer_1-2" data-name="Layer 1-2">
    <g>
      <path class="cls-1" d="M284.0035553,70.4905119h-26.2353516v-3.9042969l10.5107422-10.5644531c3.203125-3.2392578,5.3144531-5.5507812,6.3330078-6.934082,1.0195312-1.3828125,1.7841797-2.7299805,2.2939453-4.0400391.5087891-1.3105469.7636719-2.7207031.7636719-4.2314453,0-2.1293945-.6455078-3.8173828-1.9375-5.0639648-1.2929688-1.246582-3.0849609-1.8701172-5.3779297-1.8701172-1.6572266,0-3.2265625.2729492-4.7099609.8188477s-3.1347656,1.5380859-4.9541016,2.9755859l-2.4023438-3.0849609c3.6757812-3.0571289,7.6796875-4.5859375,12.0117188-4.5859375,3.7490234,0,6.6875.9599609,8.8173828,2.8798828,2.1289062,1.9204102,3.1943359,4.5,3.1943359,7.7392578,0,2.5302734-.7099609,5.0327148-2.1298828,7.5073242-1.4189453,2.4755859-4.0771484,5.6054688-7.9716797,9.3916016l-8.7353516,8.5439453v.21875h20.5292969v4.2041016Z"/>
      <path class="cls-1" d="M316.1891022,50.4807463c0,6.8974609-1.0869141,12.0478516-3.2617188,15.4511719s-5.5009766,5.1044922-9.9785156,5.1044922c-4.2949219,0-7.5615234-1.7421875-9.7998047-5.2275391s-3.3583984-8.5947266-3.3583984-15.328125c0-6.9526367,1.0830078-12.1123047,3.2490234-15.4794922,2.1660156-3.3666992,5.46875-5.050293,9.9091797-5.050293,4.3320312,0,7.6210938,1.7563477,9.8691406,5.2685547,2.2480469,3.5126953,3.3710938,8.5996094,3.3710938,15.2612305ZM294.3775787,50.4807463c0,5.8046875.6826172,10.0322266,2.046875,12.6796875,1.3652344,2.6484375,3.5400391,3.9726562,6.5244141,3.9726562,3.0214844,0,5.2099609-1.3427734,6.5664062-4.0273438,1.3554688-2.6835938,2.0332031-6.8925781,2.0332031-12.625,0-5.7333984-.6777344-9.9331055-2.0332031-12.5996094-1.3564453-2.6655273-3.5449219-3.9990234-6.5664062-3.9990234-2.984375,0-5.1591797,1.3149414-6.5244141,3.9448242-1.3642578,2.6298828-2.046875,6.8476562-2.046875,12.6538086Z"/>
      <path class="cls-1" d="M347.9391022,70.4905119h-26.2353516v-3.9042969l10.5107422-10.5644531c3.203125-3.2392578,5.3144531-5.5507812,6.3330078-6.934082,1.0195312-1.3828125,1.7841797-2.7299805,2.2939453-4.0400391.5087891-1.3105469.7636719-2.7207031.7636719-4.2314453,0-2.1293945-.6455078-3.8173828-1.9375-5.0639648-1.2929688-1.246582-3.0849609-1.8701172-5.3779297-1.8701172-1.6572266,0-3.2265625.2729492-4.7099609.8188477s-3.1347656,1.5380859-4.9541016,2.9755859l-2.4023438-3.0849609c3.6757812-3.0571289,7.6796875-4.5859375,12.0117188-4.5859375,3.7490234,0,6.6875.9599609,8.8173828,2.8798828,2.1289062,1.9204102,3.1943359,4.5,3.1943359,7.7392578,0,2.5302734-.7099609,5.0327148-2.1298828,7.5073242-1.4189453,2.4755859-4.0771484,5.6054688-7.9716797,9.3916016l-8.7353516,8.5439453v.21875h20.5292969v4.2041016Z"/>
      <path class="cls-1" d="M366.14711,46.1120939c4.2041016,0,7.5117188,1.0419922,9.9228516,3.1259766,2.4111328,2.0844727,3.6171875,4.9370117,3.6171875,8.5581055,0,4.1318359-1.3144531,7.3710938-3.9443359,9.71875s-6.2568359,3.5214844-10.8789062,3.5214844c-4.4951172,0-7.9267578-.71875-10.2919922-2.15625v-4.3681641c1.2734375.8193359,2.8574219,1.4609375,4.75,1.9248047s3.7578125.6962891,5.5966797.6962891c3.203125,0,5.6914062-.7558594,7.4658203-2.2666016,1.7744141-1.5097656,2.6621094-3.6943359,2.6621094-6.5517578,0-5.5683594-3.4121094-8.3535156-10.2373047-8.3535156-1.7294922,0-4.0400391.2641602-6.9345703.7919922l-2.3476562-1.5014648,1.5019531-18.6728516h19.8466797v4.1767578h-15.9707031l-1.0097656,11.984375c2.0927734-.418457,4.1767578-.6279297,6.2519531-.6279297Z"/>
    </g>
  </g>
  <g id="Layer_2" data-name="Layer 2">
    <g id="Layer_1-2-2" data-name="Layer 1-2">
      <g>
        <g>
          <path class="cls-1" d="M139.249176,37.8476591h7.1158905v9.3396111c-1.1563416.3557892-2.2237244.6226387-3.2466278.8005333-1.0229034.133419-2.0458221.2223701-3.113205.2223701-2.7129364,0-4.8032227-.8005333-6.2264099-2.4016113s-2.1347656-3.8692741-2.1347656-6.8935242c0-2.890831.8450165-5.1590271,2.4905701-6.8045692,1.6455536-1.6455498,3.9582062-2.4460888,6.8935242-2.4460888,1.8234558,0,3.6468964.3557968,5.3369141,1.1118584l-1.2452698,3.0687275c-1.3342285-.6671143-2.668457-.9784393-4.0916443-.9784393-1.6455536,0-2.9797821.533699-3.9582062,1.6455574-.9784393,1.1118584-1.4676514,2.5795059-1.4676514,4.4474335,0,1.9568672.4002686,3.42453,1.2008057,4.491909.8005371,1.0229034,1.9568634,1.5566025,3.4689941,1.5566025.8005371,0,1.6010742-.0889549,2.4460907-.2668495v-3.7358437h-3.42453v-3.1576805h-.0444946l.0000153.0000038Z"/>
          <path class="cls-1" d="M156.2828369,48.2101736c-2.2237244,0-3.9582062-.6226387-5.2035065-1.823452-1.2452698-1.2008133-1.8679352-2.9353104-1.8679352-5.2035027,0-2.3126717.5781555-4.0916443,1.7344971-5.3369217s2.7574158-1.8679276,4.7587585-1.8679276c1.9568634,0,3.4689941.533699,4.5363922,1.6455574,1.0673828,1.1118584,1.6455536,2.6239853,1.6455536,4.5808525v1.823452h-8.8503876c.0444794,1.0673828.3557892,1.9123917.93396,2.4905663.5781555.5781593,1.4231873.8894882,2.4905701.8894882.8450165,0,1.6010742-.0889549,2.357132-.2668495.756073-.1778946,1.5121307-.4447441,2.3126678-.8450089v2.890831c-.6671143.3113251-1.3787079.5781593-2.0903015.7115936-.756073.2223701-1.690033.3113251-2.7574158.3113251l.0000153-.0000038ZM155.7491455,36.6023703c-.8005371,0-1.4231873.2668495-1.8679352.7560692s-.7115936,1.2008133-.756073,2.1347618h5.2479706c0-.9339638-.2668457-1.6455574-.7115936-2.1347618-.4891968-.4892197-1.1118317-.7560692-1.912384-.7560692h.0000153Z"/>
          <path class="cls-1" d="M177.3636932,47.9878035h-3.7358551v-8.0498581c0-.9784393-.1779022-1.7344971-.5336914-2.2237167s-.9339447-.7560692-1.6900177-.7560692c-1.0673981,0-1.8234406.3557892-2.2681732,1.0673828-.489212.7115936-.7115784,1.8679276-.7115784,3.4689941v6.4932556h-3.7358398v-13.742569h2.8463593l.489212,1.7789726h.2223663c.4002838-.6671143.9784393-1.1563339,1.7345123-1.5121231.7115784-.3557892,1.5565948-.4892197,2.4905548-.4892197,1.601059,0,2.8018799.4447441,3.6468964,1.289753s1.2452698,2.1347618,1.2452698,3.7358437v8.9393578l-.0000153-.0000038Z"/>
          <path class="cls-1" d="M187.0590973,48.2101736c-2.2237244,0-3.9582214-.6226387-5.2035065-1.823452s-1.8679352-2.9353104-1.8679352-5.2035027c0-2.3126717.5781555-4.0916443,1.7345123-5.3369217,1.1563263-1.2452774,2.7574158-1.8679276,4.7587585-1.8679276,1.9568787,0,3.4689941.533699,4.5363922,1.6455574s1.6455536,2.6239853,1.6455536,4.5808525v1.823452h-8.8504028c.0444641,1.0673828.3557892,1.9123917.9339447,2.4905663.5781555.5781593,1.4231873.8894882,2.4905548.8894882.8450165,0,1.601059-.0889549,2.357132-.2668495s1.512146-.4447441,2.3126678-.8450089v2.890831c-.6671143.3113251-1.3786926.5781593-2.0903015.7115936-.7560425.2223701-1.6900177.3113251-2.7573853.3113251l.0000153-.0000038ZM186.5253906,36.6023703c-.8005371,0-1.4231873.2668495-1.8679352.7560692s-.7115784,1.2008133-.756073,2.1347618h5.2479706c0-.9339638-.2668304-1.6455574-.7115784-2.1347618-.489212-.4892197-1.1118622-.7560692-1.912384-.7560692Z"/>
          <path class="cls-1" d="M203.1143188,33.9339094c.489212,0,.9339447.0444756,1.2452698.0889549l-.2668304,3.5134697c-.3113251-.0889549-.6671143-.133419-1.1118622-.133419-1.2008057,0-2.1347656.3113251-2.8018799.9339638s-1.0229034,1.4676476-1.0229034,2.5795059v6.9824753h-3.7358551v-13.742569h2.8463745l.5336914,2.3126717h.1779022c.4447479-.7560692,1.0229034-1.3787079,1.7345123-1.8679276.756012-.40028,1.5565796-.6671295,2.4015656-.6671295l.0000153.0000038Z"/>
          <path class="cls-1" d="M214.9445038,47.9878035l-.7115784-1.8679276h-.0889587c-.6226501.8005333-1.2897644,1.3342285-1.9568787,1.6455574s-1.5565948.4447441-2.6239929.4447441c-1.3342285,0-2.357132-.3557892-3.113205-1.1118584s-1.1563263-1.823452-1.1563263-3.2021599c0-1.4676476.489212-2.5350418,1.512146-3.2466202,1.0229034-.7115936,2.5795135-1.0673828,4.6253357-1.1563339l2.4016266-.0889549v-.6226387c0-1.3787079-.7115784-2.0902977-2.1347656-2.0902977-1.1118622,0-2.4016266.3113251-3.869278.9784393l-1.2452698-2.5350418c1.601059-.8450089,3.3355713-1.2452774,5.2479706-1.2452774,1.8234406,0,3.2466278.4002647,4.2250671,1.2008133.9784393.8005333,1.4676514,2.0458221,1.4676514,3.6469002v9.1617165h-2.5795288v.0889397h-.0000153ZM213.8326569,41.583499l-1.4676514.0444756c-1.1118622.0444756-1.912384.2223701-2.4460907.5781593s-.8005371.8894882-.8005371,1.6455574c0,1.0673828.6226501,1.601078,1.8234406,1.601078.8894806,0,1.5565948-.2668495,2.0903015-.7560692s.8005371-1.1563339.8005371-2.0013466c0,0,0-1.1118584,0-1.1118546Z"/>
          <path class="cls-1" d="M224.6843719,47.9878035h-3.7358551v-19.1239662h3.7358551v19.1239662Z"/>
          <path class="cls-1" d="M143.4297638,70.0026045l-1.2897491-4.2695389h-6.537735l-1.3342285,4.2695389h-4.0916443l6.3598328-18.0565872h4.6697998l6.3598328,18.0565872h-4.1361084ZM141.2505188,62.5309172c-1.2008057-3.8692741-1.8679352-6.0929909-2.0458221-6.5821991-.1334229-.4892197-.2668457-.8894882-.3113251-1.2008133-.2668457,1.0673828-1.0673828,3.6469002-2.3126678,7.7830086,0,0,4.6698151,0,4.6698151.0000038Z"/>
          <path class="cls-1" d="M159.4850006,65.9109602c0,1.4231873-.4892273,2.4905624-1.4676514,3.2021561-.9784393.756073-2.4460907,1.1118622-4.4029541,1.1118622-1.0229034,0-1.8679352-.0889511-2.5795135-.222374-.7115936-.1334152-1.3787079-.3557892-2.0013428-.5781631v-3.113205c.7115936.3113251,1.4676514.6226349,2.357132.8450089s1.6455536.3113251,2.3126678.3113251c1.3787079,0,2.0458221-.4002686,2.0458221-1.2008133,0-.3113251-.0889587-.533699-.2668457-.7115936s-.4892273-.4002686-.93396-.6226349-1.0229034-.4892197-1.7789764-.8005295c-1.0673828-.4447403-1.8234558-.8450089-2.3126678-1.2452774-.4892273-.3557892-.8450165-.8005333-1.0673828-1.289753s-.3557892-1.0673828-.3557892-1.823452c0-1.2008133.4892273-2.1792412,1.4231873-2.8463554s2.3126678-1.0229034,4.0471649-1.0229034c1.6455536,0,3.2466278.3557892,4.847702,1.0673828l-1.1118622,2.7129364c-.6671143-.3113251-1.3342285-.533699-1.912384-.7115936s-1.2008057-.2668495-1.8234558-.2668495c-1.1118622,0-1.6455536.3113251-1.6455536.8894882,0,.3557892.1779022.6226387.5336914.8894882s1.1563416.6226387,2.357132,1.1118584c1.0673828.4447441,1.8679352.8450089,2.357132,1.2008133.4892273.3557892.8894806.8005333,1.1118622,1.289753.177887.5781479.2668304,1.156311.2668304,1.8234253h.0000153Z"/>
          <path class="cls-1" d="M171.8488617,65.9109602c0,1.4231873-.489212,2.4905624-1.4676514,3.2021561-.9784393.756073-2.4460907,1.1118622-4.4029694,1.1118622-1.0229034,0-1.8679352-.0889511-2.5795135-.222374-.7115936-.1334152-1.3787079-.3557892-2.0013428-.5781631v-3.113205c.7115936.3113251,1.4676514.6226349,2.357132.8450089s1.6455536.3113251,2.3126678.3113251c1.3786926,0,2.0458069-.4002686,2.0458069-1.2008133,0-.3113251-.0889587-.533699-.2668304-.7115936-.1779022-.1778946-.489212-.4002686-.9339447-.6226349s-1.0229034-.4892197-1.7789764-.8005295c-1.0673828-.4447403-1.8234558-.8450089-2.3126678-1.2452774-.4892273-.3557892-.8450165-.8005333-1.0673828-1.289753s-.3557892-1.0673828-.3557892-1.823452c0-1.2008133.4892273-2.1792412,1.4231873-2.8463554s2.3126526-1.0229034,4.0471649-1.0229034c1.6455536,0,3.2466278.3557892,4.8477173,1.0673828l-1.1118622,2.7129364c-.6671143-.3113251-1.3342285-.533699-1.912384-.7115936s-1.2008057-.2668495-1.8234406-.2668495c-1.1118622,0-1.6455536.3113251-1.6455536.8894882,0,.3557892.1779022.6226387.5336914.8894882s1.1563263.6226387,2.357132,1.1118584c1.0673981.4447441,1.8679352.8450089,2.357132,1.2008133.489212.3557892.8894806.8005333,1.1118622,1.289753.1333923.5781479.2668152,1.156311.2668152,1.8234253Z"/>
          <path class="cls-1" d="M180.6992645,70.2694502c-2.2237244,0-3.9582214-.6226349-5.2035065-1.8234482s-1.8679352-2.9353104-1.8679352-5.2035027c0-2.3126717.5781555-4.0916443,1.7345123-5.3369217,1.1563263-1.2452774,2.7574158-1.8679276,4.7587585-1.8679276,1.9568787,0,3.4689941.533699,4.5363922,1.6455574s1.6455536,2.6239853,1.6455536,4.5808525v1.823452h-8.8504028c.0444641,1.0673828.3557892,1.9123917.9339447,2.4905624.5781555.5781631,1.4231873.8894882,2.4905548.8894882.8450165,0,1.601059-.0889511,2.357132-.2668457s1.512146-.4447403,2.3126678-.8450089v2.890831c-.6671143.3113251-1.3786926.5781631-2.0903015.7115936-.7560425.222374-1.6900177.3113251-2.7573853.3113251l.0000153-.0000076ZM180.1655731,58.661643c-.8005371,0-1.4231873.2668495-1.8679352.7560692s-.7115784,1.2008133-.756073,2.1347618h5.2479706c0-.9339638-.2668304-1.6455574-.7115784-2.1347618-.489212-.4892197-1.1118622-.7560692-1.912384-.7560692Z"/>
          <path class="cls-1" d="M201.4243011,70.0026045h-3.7358551v-8.0498581c0-.9784393-.1779022-1.7344971-.489212-2.2237167-.3113251-.4892197-.8450165-.7560692-1.5565948-.7560692-.9784393,0-1.6455536.3557892-2.0903015,1.0673828s-.6671143,1.8679276-.6671143,3.4689903v6.4932709h-3.7358551v-13.742569h2.8463745l.489212,1.7789726h.2223663c.3557892-.6226387.8894806-1.1118584,1.601059-1.4676476s1.5121307-.533699,2.4016266-.533699c2.0458069,0,3.4689941.6671143,4.180603,2.0013466h.3113251c.3557892-.6226387.9339447-1.1563339,1.6455536-1.4676476.7115784-.3557892,1.512146-.533699,2.4460907-.533699,1.5565948,0,2.7574158.4002647,3.5579529,1.2008133.8005371.8005333,1.2008057,2.0902977,1.2008057,3.8247948v8.9393349h-3.7803192v-8.0498581c0-.9784393-.1779022-1.7344971-.489212-2.2237167-.3113251-.4892197-.8450165-.7560692-1.5565948-.7560692-.9339447,0-1.601059.3113251-2.0458069.9784393s-.6671143,1.6900177-.6671143,3.113205v6.9379997h-.0889893Z"/>
          <path class="cls-1" d="M220.9930115,55.993186c1.6455536,0,2.8908386.6226387,3.8247833,1.9123917.9339447,1.2452774,1.3786926,3.02425,1.3786926,5.2035027,0,2.2681961-.489212,4.0471649-1.4231873,5.2924423-.9339447,1.2452774-2.2237244,1.8679276-3.869278,1.8679276-1.601059,0-2.8908386-.5781631-3.7803192-1.7789764h-.2668304l-.6226501,1.5121231h-2.8463745v-19.1239662h3.7358551v4.4474335c0,.5781593-.0444641,1.4676476-.1334229,2.7129364h.1334229c.845047-1.3787079,2.1347961-2.0458221,3.8692932-2.0458221l.0000153.0000076ZM219.7921906,58.9729719c-.9339447,0-1.601059.2668495-2.0458069.8450089s-.6671143,1.5121231-.6671143,2.8018799v.4002647c0,1.4676476.2223663,2.5350456.6671143,3.1576805s1.1118622.9784393,2.0903015.9784393c.756073,0,1.3786926-.3557892,1.8234406-1.0673828s.6671143-1.7344971.6671143-3.113205c0-1.3342285-.2223663-2.3571358-.6671143-3.02425-.4447479-.6226501-1.0673981-.9784393-1.8679352-.9784355Z"/>
          <path class="cls-1" d="M232.7342377,70.0026045h-3.7358551v-19.1239662h3.7358551v19.1239662Z"/>
          <path class="cls-1" d="M234.5132141,56.2600317h4.0916443l2.5795135,7.7385292c.2223663.6671143.3557892,1.4676514.4447479,2.4016113h.0889587c.0889587-.8450089.2668304-1.6455536.5336914-2.4016113l2.5350494-7.738533h4.0026855l-5.7372284,15.5215454c-.5336914,1.4231873-1.2897644,2.4905624-2.2681732,3.2021561-.9784393.7115936-2.1347656,1.0673828-3.4689941,1.0673828-.6671143,0-1.2897644-.0889511-1.912384-.222374v-2.9797897c.4447479.0889511.9339447.1778946,1.4676514.1778946.6671143,0,1.2452698-.222374,1.7345123-.6226349.489212-.4002686.8894806-1.0229034,1.1563263-1.8234482l.2223663-.6671143-5.4703369-13.653614h-.0000305Z"/>
        </g>
        <g>
          <path class="cls-1" d="M66.8004608,75.8732176c-5.915081,4.8921814-13.520195,7.8274841-21.7924271,7.8274841-18.9015942,0-34.3341904-15.3881226-34.3341904-34.3341827,0-18.9015942,15.3881187-34.3341904,34.3341904-34.3341904,8.2722321,0,15.877346,2.9353085,21.7924271,7.827486,2.2681961-.6226387,4.6698074-.9339638,7.1158905-.9339638,2.5795059,0,5.0700684.3557968,7.4272232,1.0229111-3.42453-4.714283-7.738533-8.7169733-12.6751862-11.7856998l3.113205-6.6711512L62.1306534,0l-3.113205,6.6266742c-4.4029579-1.4676547-9.1617165-2.2681942-14.053894-2.2681942-24.7721996.0000057-44.9635544,20.1468825-44.9635544,44.9635673,0,16.0997162,8.4946022,30.2425537,21.2587357,38.2034531l-3.113203,6.6711502,9.6509304,4.4919128,3.113205-6.6266708c4.4029579,1.4676514,9.1617165,2.2681961,14.053894,2.2681961,14.9433823,0,28.1967316-7.3382645,36.3800201-18.5458069-2.357132.6671143-4.847702,1.0229034-7.4272232,1.0229034-2.4460907-.0000153-4.847702-.3558044-7.1158981-.9339676Z"/>
          <path class="cls-1" d="M48.6549377,37.6252851c1.3787079-2.9797859,3.2466202-5.6927109,5.5148163-8.0053825h-28.1522598v39.1818962h28.1077805c-2.2681961-2.3126678-4.136116-5.0255966-5.5148163-8.0053825h-14.5875854v-7.605114h12.3638687c-.1778946-1.289753-.2668495-2.6239853-.2668495-4.0026894s.0889473-2.7129364.3113174-4.0026894h-12.3638687v-7.605114c-.0444641.0444756,9.6064682.0444756,14.5875969.0444756Z"/>
          <path class="cls-1" d="M70.8476334,53.0578756h9.6064606v7.2937889c-1.9123917,1.1118584-4.0916443,1.6900177-6.3598251,1.6900177-7.0714188,0-12.8086052-5.7371864-12.8086052-12.8086052s5.7371864-12.8086052,12.8086052-12.8086052c2.890831,0,5.6482468.9339638,7.9164276,2.7129364l4.9366531-6.315361c-3.6913681-2.8908329-8.1388016-4.4474335-12.8530807-4.4474335-11.4743729,0-20.8139877,9.3396111-20.8139877,20.8139877s9.3396072,20.8139877,20.8139877,20.8139877c4.7142792,0,9.1617126-1.5121231,12.8530807-4.4474335l1.5121231-1.2008133v-19.25737h-17.6118393v7.9609032Z"/>
          <path class="cls-1" d="M116.6117249,29.6198988v25.617218c0,3.7358437-3.0687256,6.8045692-6.8045654,6.8045692s-6.8045654-3.0687256-6.8045654-6.8045692v-25.6172237h-8.0053787v25.6172237c0,8.1832771,6.6266708,14.8099518,14.8099518,14.8099518s14.8099518-6.6266747,14.8099518-14.8099518v-25.6172237h-8.0053787v.0000076l-.0000153-.0000019Z"/>
        </g>
      </g>
    </g>
  </g>
</svg>